<?xml version="1.0" encoding="utf-8"?>
<!-- Generator: Adobe Illustrator 27.5.0, SVG Export Plug-In . SVG Version: 6.00 Build 0)  -->
<svg version="1.1" xmlns="http://www.w3.org/2000/svg" xmlns:xlink="http://www.w3.org/1999/xlink" x="0px" y="0px"
	 viewBox="0 0 500 500" style="enable-background:new 0 0 500 500;" xml:space="preserve">
<g id="Background_Complete">
	<g>
		<path style="fill:#EBEBEB;" d="M397.252,387.264l2.524-5.589c4.424-10.172-0.252-22.047-10.424-26.471
			c-10.172-4.424-22.047,0.252-26.459,10.396l-2.571,5.693c-5.299-1.428-10.983,1.187-13.237,6.37l-14.425,33.166
			c-2.48,5.701,0.132,12.333,5.833,14.813l34.432,14.976c5.701,2.48,12.333-0.132,14.813-5.833l14.425-33.166
			C404.504,396.236,402.303,390.028,397.252,387.264z M368.499,416.601l-9.006-3.917l4.235-5.892
			c-1.138-1.647-1.43-3.823-0.573-5.793c1.319-3.032,4.846-4.421,7.879-3.102c3.032,1.319,4.421,4.847,3.102,7.879
			c-0.826,1.9-2.518,3.154-4.413,3.502C369.263,412.075,368.499,416.601,368.499,416.601z M393.298,385.488l-28.945-12.589
			l2.503-5.542c3.471-7.98,12.787-11.649,20.768-8.178c7.98,3.471,11.649,12.787,8.19,20.739L393.298,385.488z"/>
	</g>
	<g>
		<path style="fill:#E0E0E0;" d="M191.828,162.442l-5.772-10.052l-9.039,1.329l-7.464-9.378l3.847-9.337l-10.078-6.688l-7.524,7.587
			l-9.908-1.737l-4.018-11.653l-12.042,1.271l-0.682,10.193l-8.972,4.558l-9.498-6.724l-9.634,7.017l5.006,10.788l-5.733,8.638
			L89.9,157.701l-2.721,12.849l9.912,3.813l0.853,10.797l-10.275,5.9l4.911,11.14l10.635-1.651l7.046,8.132l-3.685,10.135
			l9.743,6.881l7.603-8.227l10.549,2.854l3.281,10.888l11.724-0.791l1.513-9.779l10.052-5.772l8.224,6.564l10.4-7.753l-5.259-9.159
			l5.125-9.18l10.545,0.777l3.234-11.956l-9.052-4.901l-1.205-10.892L191.828,162.442z M150.99,197.622
			c-11.35,6.517-25.834,2.599-32.35-8.751c-6.517-11.35-2.599-25.834,8.751-32.35c11.35-6.517,25.834-2.599,32.35,8.751
			C166.257,176.622,162.339,191.106,150.99,197.622z"/>
	</g>
	<g>
		<path style="fill:#EBEBEB;" d="M117.124,63.393c0-8.585-9.02-14.024-18.217-9.72c-2.077,0.972-3.796,2.617-4.839,4.638
			c-2.314,4.482-1.292,9.6,0.806,13.85l7.157,18.14c1.032,2.614,4.737,2.599,5.747-0.024l7.018-18.234
			C117.226,66.488,117.124,63.393,117.124,63.393z M108.484,70.864c-6.183,3.595-12.448-3.05-9.059-9.607
			c0.451-0.872,1.141-1.604,1.963-2.083c6.183-3.595,12.449,3.05,9.059,9.607C109.997,69.654,109.307,70.386,108.484,70.864z"/>
	</g>
	<g>
		<g>
			<g>
				<path style="fill:#E0E0E0;" d="M110.618,422.505c-0.072-0.042,0.788-1.071,1.655-3.263c0.449-1.087,0.796-2.501,0.939-4.158
					c0.135-1.656,0.001-3.582-0.623-5.581c-0.627-1.986-1.714-4.074-3.434-5.835c-1.715-1.739-3.965-3.262-6.637-3.973
					c-1.32-0.393-2.738-0.571-4.177-0.544c-1.441,0.005-2.913,0.24-4.332,0.718c-2.865,0.893-5.49,2.801-7.371,5.362
					c-1.834,2.595-2.813,5.691-2.752,8.692c-0.004,1.498,0.241,2.969,0.691,4.338c0.43,1.374,1.049,2.663,1.84,3.791
					c1.521,2.31,3.679,3.961,5.872,5.037c2.215,1.073,4.54,1.443,6.623,1.408c2.094-0.042,3.963-0.526,5.491-1.178
					c1.526-0.662,2.757-1.438,3.646-2.209C109.852,423.592,110.555,422.451,110.618,422.505c0.007,0.005-0.037,0.074-0.13,0.205
					c-0.114,0.154-0.253,0.341-0.424,0.571c-0.183,0.255-0.423,0.559-0.749,0.883c-0.314,0.333-0.669,0.728-1.137,1.1
					c-0.88,0.804-2.115,1.62-3.66,2.321c-1.547,0.691-3.451,1.212-5.597,1.279c-2.134,0.06-4.527-0.298-6.816-1.385
					c-2.266-1.089-4.501-2.779-6.085-5.157c-0.822-1.162-1.467-2.49-1.917-3.91c-0.471-1.413-0.728-2.934-0.728-4.484
					c-0.069-3.104,0.94-6.316,2.84-9.001c1.945-2.652,4.671-4.625,7.637-5.543c1.47-0.491,2.993-0.729,4.483-0.73
					c1.488-0.023,2.952,0.168,4.315,0.579c2.758,0.749,5.068,2.332,6.819,4.137c1.756,1.827,2.855,3.983,3.473,6.026
					c0.616,2.056,0.726,4.027,0.561,5.714c-0.174,1.688-0.557,3.118-1.041,4.208c-0.204,0.562-0.466,1.023-0.683,1.427
					c-0.203,0.412-0.416,0.736-0.6,0.99c-0.164,0.235-0.298,0.426-0.408,0.583C110.677,422.447,110.625,422.51,110.618,422.505z"/>
			</g>
		</g>
		<g>
			<g>
				<path style="fill:#E0E0E0;" d="M112.326,454.404c-0.135,0.05-2.428-5.791-5.121-13.045c-2.694-7.257-4.768-13.178-4.633-13.228
					c0.135-0.05,2.427,5.79,5.121,13.047C110.386,448.432,112.46,454.354,112.326,454.404z"/>
			</g>
		</g>
	</g>
	<g>
		<g>
			<path style="fill:#EBEBEB;" d="M403.198,77.905c0.006,4.123-3.332,7.471-7.456,7.476c-4.123,0.006-7.471-3.332-7.476-7.456
				c-0.006-4.123,3.332-7.471,7.456-7.476C399.845,70.443,403.193,73.782,403.198,77.905z"/>
		</g>
		<g>
			<path style="fill:#EBEBEB;" d="M424.096,62.944c0.006,4.123-3.332,7.471-7.456,7.476c-4.124,0.006-7.471-3.332-7.476-7.456
				c-0.006-4.123,3.332-7.471,7.456-7.476C420.743,55.482,424.09,58.82,424.096,62.944z"/>
		</g>
		<g>
			<path style="fill:#EBEBEB;" d="M424.14,94.591c0.006,4.487-3.332,8.128-7.455,8.134c-4.123,0.006-7.471-3.627-7.477-8.113
				c-0.006-4.486,3.332-8.128,7.455-8.134C420.786,86.472,424.134,90.104,424.14,94.591z"/>
		</g>
		<g>
			<g>
				<path style="fill:#EBEBEB;" d="M414.47,93.643c-0.319,0.469-5.285-2.351-11.091-6.298c-5.808-3.949-10.255-7.529-9.936-7.999
					c0.319-0.469,5.284,2.35,11.092,6.299C410.341,89.593,414.789,93.174,414.47,93.643z"/>
			</g>
		</g>
		<g>
			<g>
				<path style="fill:#EBEBEB;" d="M415.066,62.431c0.348,0.449-3.486,4.002-8.563,7.935c-5.078,3.934-9.475,6.759-9.823,6.31
					c-0.347-0.448,3.486-4.001,8.564-7.935C410.321,64.808,414.719,61.983,415.066,62.431z"/>
			</g>
		</g>
	</g>
</g>
<g id="Background_Simple" style="display:none;">
	<path style="display:inline;fill:#F5F5F5;" d="M427.621,112.733c28.963,57.709,19.801,130.554-16.398,184.022
		s-96.422,88.086-159.749,100.691c-45.205,8.998-93.836,7.166-135.14-13.289c-41.304-20.455-73.782-61.609-76.259-107.634
		c-0.936-17.384,2.751-35.844,14.353-48.825c18.524-20.727,50.148-21.456,77.933-20.601c27.785,0.855,59.388,0.207,78.002-20.438
		c14.303-15.864,16.409-38.874,23.946-58.86c12.816-33.982,43.734-60.516,79.267-68.027c4.935-1.043,9.938-1.715,14.961-2.028
		c39.082-2.44,76.15,17.671,96.652,51.032L427.621,112.733z"/>
</g>
<g id="Mail">
	<g>
		<g>
			<g>
				
					<rect x="321.111" y="141.377" transform="matrix(0.9955 -0.0944 0.0944 0.9955 -14.3623 34.9849)" style="fill:#FFFFFF;" width="82.645" height="55.706"/>
			</g>
			<g>
				<g>
					<path style="fill:#455A64;" d="M406.203,193.055c0,0-0.056-0.358-0.131-1.026c-0.074-0.698-0.179-1.677-0.314-2.941
						c-0.265-2.601-0.649-6.365-1.138-11.17c-0.954-9.648-2.32-23.464-3.984-40.29l0.335,0.277
						c-22.712,2.176-51.294,4.914-82.262,7.881c-0.082,0.09,0.647-0.789,0.34-0.41l0.001,0.015l0.003,0.029l0.005,0.058l0.011,0.116
						l0.022,0.232l0.044,0.463l0.088,0.925l0.175,1.845c0.116,1.228,0.232,2.452,0.348,3.671c0.231,2.439,0.46,4.861,0.688,7.264
						c0.454,4.807,0.901,9.538,1.339,14.179c0.872,9.282,1.711,18.206,2.505,26.656l-0.383-0.316
						c24.187-2.224,44.712-4.11,59.227-5.445c7.247-0.647,12.993-1.16,16.964-1.514c1.952-0.167,3.466-0.296,4.528-0.387
						c0.496-0.038,0.882-0.068,1.177-0.091C406.056,193.055,406.195,193.049,406.203,193.055c0.008,0.006-0.117,0.025-0.369,0.056
						c-0.284,0.032-0.656,0.074-1.133,0.128c-1.044,0.109-2.532,0.264-4.45,0.465c-3.948,0.397-9.661,0.971-16.867,1.695
						c-14.563,1.424-35.156,3.438-59.423,5.811l-0.349,0.034l-0.034-0.351c-0.809-8.449-1.664-17.371-2.553-26.652
						c-0.442-4.641-0.893-9.372-1.351-14.178c-0.229-2.403-0.459-4.825-0.691-7.264c-0.116-1.22-0.232-2.443-0.349-3.671
						l-0.175-1.845l-0.088-0.924l-0.044-0.463l-0.022-0.232l-0.011-0.116l-0.006-0.058l-0.003-0.029l-0.001-0.015
						c-0.311,0.368,0.42-0.519,0.352-0.427c30.974-2.909,59.561-5.594,82.276-7.728l0.307-0.029l0.028,0.305
						c1.537,16.919,2.8,30.811,3.681,40.511c0.42,4.781,0.749,8.528,0.976,11.116c0.103,1.242,0.183,2.205,0.24,2.891
						C406.194,192.737,406.203,193.055,406.203,193.055z"/>
				</g>
			</g>
		</g>
		<g>
			<g>
				<path style="fill:#455A64;" d="M400.942,137.599c0.019,0.017-0.201,0.299-0.637,0.82c-0.491,0.572-1.135,1.322-1.939,2.259
					c-1.765,2.005-4.227,4.801-7.255,8.24c-6.242,6.98-14.801,16.552-24.34,27.22l-0.216,0.242l-0.275-0.175
					c-0.694-0.442-1.44-0.918-2.191-1.396c-12.547-8.049-23.902-15.332-32.206-20.659c-4.048-2.64-7.348-4.793-9.712-6.335
					c-1.088-0.729-1.959-1.312-2.62-1.755c-0.594-0.408-0.9-0.634-0.885-0.656c0.014-0.023,0.347,0.159,0.968,0.525
					c0.68,0.412,1.577,0.955,2.697,1.634c2.396,1.492,5.741,3.574,9.843,6.129c8.335,5.277,19.732,12.494,32.326,20.469
					c0.75,0.478,1.496,0.954,2.191,1.397l-0.491,0.067c9.608-10.605,18.229-20.122,24.516-27.061
					c3.102-3.372,5.625-6.114,7.433-8.079c0.847-0.898,1.526-1.617,2.043-2.165C400.665,137.829,400.922,137.581,400.942,137.599z"
					/>
			</g>
		</g>
	</g>
</g>
<g id="Plants">
	<g>
		<g>
			<path style="fill:#E8505B;" d="M80.638,251.344c0,0,7.043-4.838,16.032,12.055s12.454,26.665,12.454,26.665
				s2.359,3.531,4.772,1.153c2.412-2.378,5.655-9.06,9.846-7.941c4.347,1.16,5.856,5.962,5.157,13.069
				c-0.699,7.107-1.66,22.734-1.742,24.148c-0.08,1.387,0.75,3.415,2.652,2.058c1.903-1.356,12.765-13.892,18.405-8.382
				c5.64,5.51,0.438,24.989-0.09,27.13c-0.528,2.14-0.095,3.043,0.926,3.552c1.021,0.509,4.275-4.048,7.511-7.487
				c3.236-3.439,7.59-6.859,10.577-3.407c2.988,3.452,4.181,17.977-9.242,41.842l-6.943,10.651l-12.762-0.482
				c-27.247-2.696-38.461-12.006-39.575-16.433c-1.114-4.427,4.186-6.032,8.859-6.709c4.673-0.678,10.272-0.728,10.441-1.857
				c0.169-1.129-0.322-2.001-2.378-2.797c-2.056-0.796-20.995-7.709-22.273-15.49c-1.278-7.78,15.221-9.487,17.424-10.267
				c2.203-0.78,1.018-2.623-0.165-3.353c-1.205-0.744-14.556-8.921-20.778-12.426c-6.222-3.504-9.289-7.495-7.746-11.721
				c1.488-4.075,8.822-2.898,12.153-3.51c3.331-0.612,1.793-4.57,1.793-4.57s-6.017-8.444-14.697-25.497
				c-8.68-17.053-0.461-20.082-0.461-20.082"/>
		</g>
		<g>
			<g>
				<path style="fill:#263238;" d="M88.714,266.459c0.008-0.004,0.069,0.098,0.181,0.299c0.121,0.225,0.282,0.523,0.486,0.902
					c0.431,0.823,1.044,1.994,1.827,3.489c1.589,3.062,3.864,7.448,6.671,12.857c5.686,10.856,13.519,25.812,22.171,42.331
					c8.694,16.519,16.494,31.51,22.049,42.408c2.748,5.44,4.976,9.85,6.531,12.929c0.748,1.513,1.333,2.697,1.745,3.531
					c0.186,0.388,0.332,0.693,0.443,0.924c0.097,0.209,0.143,0.318,0.136,0.322c-0.008,0.004-0.069-0.098-0.181-0.3
					c-0.121-0.225-0.282-0.523-0.486-0.902c-0.431-0.823-1.044-1.994-1.827-3.488c-1.588-3.061-3.864-7.447-6.67-12.856
					c-5.633-10.856-13.482-25.819-22.175-42.338c-8.691-16.514-16.49-31.503-22.045-42.401c-2.748-5.44-4.976-9.85-6.532-12.929
					c-0.748-1.513-1.333-2.698-1.745-3.531c-0.186-0.388-0.332-0.693-0.443-0.924C88.753,266.572,88.707,266.463,88.714,266.459z"/>
			</g>
		</g>
		<g>
			<g>
				<path style="fill:#263238;" d="M119.582,292.806c0.069,0.019-0.214,1.294-0.674,3.352c-0.482,2.19-1.094,4.973-1.772,8.05
					c-0.686,3.147-1.328,5.994-1.857,8.041c-0.266,1.023-0.499,1.847-0.677,2.411c-0.182,0.563-0.298,0.87-0.33,0.861
					c-0.069-0.02,0.23-1.289,0.668-3.352c0.466-2.194,1.059-4.982,1.715-8.066c0.687-3.148,1.366-5.987,1.915-8.028
					c0.276-1.02,0.509-1.843,0.689-2.406C119.435,293.105,119.549,292.797,119.582,292.806z"/>
			</g>
		</g>
		<g>
			<g>
				<path style="fill:#263238;" d="M113.107,315.768c-0.035,0.132-5.881-1.323-13.055-3.249c-7.177-1.926-12.964-3.594-12.929-3.726
					s5.88,1.323,13.056,3.25C107.354,313.969,113.143,315.637,113.107,315.768z"/>
			</g>
		</g>
		<g>
			<g>
				<path style="fill:#263238;" d="M129.813,344.186c0.002,0.034-0.329,0.084-0.93,0.146c-0.6,0.065-1.471,0.129-2.548,0.195
					c-2.154,0.123-5.137,0.219-8.431,0.149c-3.295-0.062-6.273-0.272-8.42-0.486c-1.074-0.104-1.941-0.21-2.539-0.296
					c-0.598-0.086-0.926-0.15-0.923-0.184c0.007-0.071,1.339,0.009,3.488,0.132c2.15,0.124,5.119,0.278,8.403,0.34
					c3.282,0.07,6.255,0.029,8.409-0.005C128.475,344.14,129.809,344.114,129.813,344.186z"/>
			</g>
		</g>
		<g>
			<g>
				<path style="fill:#263238;" d="M140.24,324.706c0.06,0.033-0.482,1.141-1.405,2.906c-0.923,1.765-2.228,4.187-3.696,6.847
					c-1.469,2.661-2.822,5.057-3.823,6.779c-1.001,1.722-1.65,2.771-1.71,2.738c-0.06-0.033,0.481-1.141,1.405-2.906
					c0.923-1.765,2.228-4.187,3.697-6.848c1.468-2.66,2.821-5.056,3.823-6.777C139.532,325.722,140.181,324.673,140.24,324.706z"/>
			</g>
		</g>
		<g>
			<g>
				<path style="fill:#263238;" d="M158.175,347.92c0.03,0.017-0.136,0.376-0.461,1.013c-0.384,0.723-0.857,1.616-1.417,2.671
					c-1.216,2.245-2.925,5.329-4.839,8.72c-1.915,3.393-3.672,6.45-4.965,8.651c-0.614,1.025-1.133,1.892-1.554,2.594
					c-0.376,0.607-0.599,0.935-0.628,0.918c-0.03-0.017,0.136-0.376,0.461-1.012c0.384-0.723,0.857-1.615,1.417-2.671
					c1.216-2.245,2.925-5.329,4.84-8.722c1.914-3.391,3.671-6.449,4.964-8.65c0.614-1.025,1.134-1.892,1.554-2.594
					C157.924,348.231,158.146,347.903,158.175,347.92z"/>
			</g>
		</g>
		<g>
			<g>
				<path style="fill:#263238;" d="M144.477,371.806c0.001,0.034-0.422,0.071-1.186,0.109c-0.764,0.04-1.871,0.071-3.239,0.093
					c-2.736,0.037-6.519,0.011-10.69-0.189c-4.173-0.195-7.942-0.52-10.662-0.818c-1.36-0.147-2.459-0.286-3.216-0.397
					c-0.757-0.11-1.174-0.187-1.171-0.221c0.004-0.034,0.428-0.021,1.191,0.03c0.863,0.064,1.944,0.145,3.228,0.24
					c2.724,0.209,6.489,0.479,10.653,0.673c4.163,0.2,7.936,0.281,10.668,0.333c1.288,0.025,2.372,0.047,3.237,0.064
					C144.053,371.744,144.476,371.772,144.477,371.806z"/>
			</g>
		</g>
	</g>
	<g>
		<g>
			<g>
				<path style="fill:#455A64;" d="M356.762,333.935c-7.721,0-14.518-1.689-21.116-5.148l-0.104-0.073
					c-14.096-12.871-19.051-34.188-14.331-61.644c0.12-0.697,0.222-1.405,0.322-2.115c0.418-2.93,0.85-5.96,2.655-8.393
					c2.234-3.011,6.858-4.799,10.186-2.665c2.162,1.391,3.082,3.836,3.972,6.201c0.212,0.563,0.422,1.124,0.648,1.665
					c1.494,3.57,4.063,6.756,7.233,8.971c1.471,1.027,4.319,2.607,6.892,1.63c3.106-1.178,4.015-5.241,4.459-8.649l2.597-19.92
					c0.464-3.563,0.943-7.248,2.581-10.58c1.858-3.783,5.012-6.316,8.435-6.775c2.064-0.276,4.288,0.376,5.962,1.742
					c1.427,1.164,2.274,2.713,2.389,4.363c0.066,0.956-0.1,1.888-0.26,2.789c-0.105,0.595-0.205,1.156-0.244,1.726
					c-0.083,1.208,0.244,2.807,1.441,3.34c0.938,0.418,2.178,0.067,3.687-1.037c4.146-3.034,7.215-7.185,10.249-11.529l0.701-1.005
					c2.736-3.93,5.565-7.993,9.219-11.219c4.551-4.018,9.729-6.011,14.587-5.623c5.756,0.465,10.743,4.835,11.354,9.948
					c0.525,4.376-1.757,8.93-6.975,13.922c-5.659,5.415-12.064,9.974-19.036,13.551c-1.207,0.62-2.449,1.258-2.991,2.365
					c-0.551,1.128-0.154,2.245,0.276,2.984c0.567,0.976,1.543,1.869,2.609,2.39c1.627,0.793,3.399,1.113,5.275,1.453
					c0.961,0.174,1.955,0.354,2.92,0.603c1.71,0.441,5.788,1.858,6.713,5.485c1.197,4.702-3.954,8.464-6.224,9.863
					c-6.843,4.219-14.299,7.209-22.16,8.888l-1.014,0.212c-2.397,0.495-4.877,1.007-6.901,2.315
					c-2.102,1.36-3.857,4.159-2.971,6.666c0.902,2.556,4.019,3.585,6.513,3.487c1.819-0.081,3.551-0.585,5.385-1.119
					c0.929-0.271,1.889-0.551,2.851-0.767c5.114-1.143,11.899-0.079,14.706,4.961c1.657,2.977,1.606,6.935-0.134,10.587
					c-1.606,3.375-4.334,6.042-6.791,8.206c-9.732,8.576-21.024,14.313-32.655,16.587
					C365.051,333.477,360.782,333.935,356.762,333.935z M336.168,327.931c9.802,5.122,20.082,6.248,33.313,3.661
					c11.456-2.242,22.586-7.897,32.187-16.356c2.38-2.098,5.02-4.674,6.549-7.886c1.602-3.361,1.662-6.977,0.163-9.671
					c-2.558-4.591-8.851-5.538-13.614-4.471c-0.933,0.208-1.877,0.483-2.791,0.75c-1.81,0.527-3.681,1.072-5.619,1.157
					c-2.861,0.146-6.428-1.117-7.501-4.151c-1.068-3.023,0.887-6.232,3.371-7.84c2.182-1.41,4.754-1.941,7.241-2.455l1.008-0.211
					c7.75-1.654,15.099-4.603,21.844-8.761c2.082-1.283,6.814-4.706,5.78-8.765c-0.793-3.109-4.456-4.367-5.994-4.764
					c-0.929-0.24-1.904-0.417-2.848-0.587c-1.86-0.337-3.784-0.686-5.536-1.539c-1.256-0.613-2.362-1.628-3.035-2.785
					c-0.781-1.343-0.892-2.737-0.311-3.927c0.688-1.406,2.144-2.153,3.427-2.813c6.893-3.537,13.218-8.04,18.808-13.387
					c4.976-4.759,7.158-9.038,6.674-13.08c-0.622-5.2-5.798-8.695-10.442-9.07c-6.186-0.509-11.329,3.154-13.845,5.376
					c-3.563,3.146-6.357,7.16-9.061,11.041l-0.701,1.006c-2.963,4.24-6.212,8.642-10.48,11.764c-1.82,1.332-3.395,1.715-4.683,1.143
					c-1.669-0.743-2.138-2.792-2.033-4.322c0.043-0.623,0.152-1.238,0.258-1.832c0.156-0.88,0.304-1.712,0.246-2.546
					c-0.095-1.371-0.813-2.669-2.023-3.657c-1.464-1.195-3.407-1.764-5.196-1.525c-3.045,0.408-5.984,2.794-7.669,6.225
					c-1.565,3.185-2.034,6.786-2.487,10.268l-2.597,19.92c-0.481,3.685-1.494,8.09-5.097,9.456
					c-3.003,1.131-6.186-0.606-7.818-1.745c-3.324-2.322-6.017-5.662-7.583-9.404c-0.231-0.553-0.446-1.125-0.663-1.699
					c-0.832-2.213-1.692-4.502-3.576-5.712c-2.853-1.835-6.875-0.229-8.842,2.419c-1.653,2.229-2.067,5.132-2.468,7.939
					c-0.103,0.719-0.205,1.436-0.326,2.144C318.95,286.122,318.743,311.971,336.168,327.931z"/>
			</g>
		</g>
		<g>
			<g>
				<g>
					<path style="fill:#263238;" d="M337.22,337.03c1.954-8.382,1.459-10.967,6.158-21.334c4.679-10.378,10.765-21.33,17.527-32.572
						c1.701-2.803,3.382-5.573,5.04-8.304c1.659-2.723,3.304-5.42,5.079-7.961c3.528-5.097,7.313-9.731,11.046-14.02
						c3.734-4.291,7.435-8.228,10.924-11.887c3.497-3.651,6.821-6.994,9.983-9.912c6.308-5.862,11.951-9.986,15.942-12.663
						c1.995-1.345,3.575-2.339,4.655-3.001c0.525-0.317,0.934-0.564,1.232-0.744c0.279-0.165,0.429-0.238,0.429-0.238
						s-0.13,0.104-0.4,0.285c-0.29,0.191-0.691,0.453-1.204,0.789c-1.06,0.691-2.621,1.713-4.594,3.083
						c-3.95,2.728-9.542,6.887-15.8,12.77c-3.138,2.929-6.44,6.282-9.919,9.942c-3.471,3.67-7.156,7.614-10.872,11.906
						c-3.716,4.288-7.482,8.915-10.987,13.993c-1.764,2.531-3.395,5.211-5.056,7.94c-1.656,2.73-3.335,5.499-5.035,8.302
						c-6.758,11.235-12.844,22.159-17.537,32.5c-4.712,10.329-4.244,12.87-6.24,21.215"/>
				</g>
			</g>
		</g>
		<g>
			<g>
				<g>
					<path style="fill:#263238;" d="M371.166,266.824c-0.038,0.001-0.079-0.557-0.12-1.567c-0.047-1.01-0.071-2.473-0.076-4.279
						c-0.014-3.614,0.131-8.605,0.304-14.109c0.174-5.507,0.232-10.488,0.139-14.093c-0.04-1.803-0.091-3.262-0.141-4.27
						c-0.044-1.007-0.052-1.567-0.013-1.571c0.037-0.003,0.115,0.551,0.224,1.556c0.115,1.005,0.224,2.465,0.314,4.271
						c0.192,3.612,0.194,8.613,0.021,14.123c-0.18,5.455-0.342,10.392-0.464,14.097c-0.039,1.728-0.071,3.164-0.095,4.273
						C371.234,266.264,371.204,266.823,371.166,266.824z"/>
				</g>
			</g>
		</g>
		<g>
			<g>
				<g>
					<path style="fill:#263238;" d="M418.706,264.643c-0.002,0.019-0.17,0.022-0.488,0.012c-0.382-0.019-0.839-0.043-1.389-0.071
						c-1.204-0.068-2.946-0.169-5.103-0.223c-4.308-0.144-10.269-0.125-16.841,0.185c-6.574,0.323-12.509,0.872-16.789,1.399
						c-2.142,0.249-3.869,0.497-5.064,0.665c-0.545,0.073-1,0.135-1.378,0.186c-0.316,0.037-0.483,0.047-0.487,0.028
						c-0.003-0.019,0.158-0.064,0.469-0.136c0.373-0.078,0.822-0.173,1.362-0.286c1.185-0.232,2.908-0.54,5.049-0.838
						c4.277-0.624,10.224-1.236,16.814-1.56c6.588-0.312,12.566-0.269,16.883-0.027c2.159,0.104,3.902,0.263,5.103,0.396
						c0.548,0.068,1.002,0.125,1.382,0.172C418.543,264.591,418.708,264.624,418.706,264.643z"/>
				</g>
			</g>
		</g>
		<g>
			<g>
				<g>
					<path style="fill:#263238;" d="M344.01,314.908c-0.018,0.005-0.096-0.204-0.228-0.605c-0.145-0.46-0.329-1.046-0.556-1.768
						c-0.478-1.536-1.115-3.776-1.867-6.553c-1.509-5.553-3.357-13.285-5.288-21.844c-1.932-8.561-3.719-16.299-5.131-21.87
						c-0.704-2.733-1.28-4.968-1.698-6.593c-0.188-0.733-0.339-1.328-0.457-1.794c-0.099-0.412-0.142-0.631-0.125-0.637
						c0.018-0.005,0.096,0.204,0.229,0.606c0.144,0.459,0.328,1.044,0.556,1.767c0.478,1.536,1.114,3.776,1.865,6.553
						c1.51,5.553,3.358,13.285,5.29,21.847c1.932,8.558,3.719,16.295,5.131,21.867c0.705,2.732,1.28,4.968,1.698,6.593
						c0.187,0.734,0.339,1.328,0.457,1.795C343.985,314.684,344.028,314.903,344.01,314.908z"/>
				</g>
			</g>
		</g>
		<g>
			<g>
				<g>
					<path style="fill:#263238;" d="M408.31,303.775c0.002,0.018-0.221,0.07-0.647,0.153c-0.485,0.086-1.106,0.197-1.873,0.333
						c-1.695,0.291-4.032,0.693-6.891,1.184c-5.816,1.007-13.834,2.496-22.687,4.163c-8.857,1.666-16.891,3.098-22.728,4.008
						c-2.919,0.457-5.283,0.804-6.921,1.014c-0.774,0.096-1.4,0.173-1.888,0.234c-0.433,0.047-0.661,0.063-0.664,0.044
						c-0.003-0.019,0.221-0.07,0.648-0.153c0.484-0.086,1.104-0.197,1.872-0.334c1.694-0.292,4.031-0.692,6.89-1.183
						c5.817-1.007,13.835-2.497,22.692-4.164c8.854-1.666,16.888-3.097,22.724-4.008c2.919-0.456,5.284-0.804,6.922-1.013
						c0.773-0.096,1.399-0.174,1.888-0.234C408.079,303.772,408.307,303.756,408.31,303.775z"/>
				</g>
			</g>
		</g>
	</g>
</g>
<g id="Device">
	<g>
		<g>
			<g>
				<g>
					<g>
						<g>
							<g>
								<path style="fill:#263238;" d="M311.733,458.656l-140.354-0.649c-16.88-0.077-30.504-13.822-30.432-30.702l1.487-351.871
									c0.071-16.89,13.824-30.522,30.714-30.445l140.355,0.648c16.88,0.078,30.503,13.823,30.432,30.703l-1.488,351.872
									C342.376,445.102,328.624,458.734,311.733,458.656z"/>
							</g>
							<g>
								<path style="fill:#EBEBEB;" d="M313.303,57.781l-27.212-0.125c-3.649-0.016-6.621,3.063-6.636,6.877l-0.022,4.936
									c-0.015,3.815-2.987,6.894-6.636,6.877l-53.043-0.245c-3.649-0.016-6.595-3.123-6.579-6.938l0.021-4.936
									c0.016-3.815-2.93-6.922-6.579-6.938l-9.571-0.045l-23.817-0.11c-11.828-0.054-21.46,9.493-21.51,21.322l-1.452,343.452
									c-0.05,11.824,9.491,21.449,21.313,21.504l140.074,0.646c11.828,0.055,21.46-9.492,21.51-21.321l1.452-343.453
									C334.666,67.461,325.125,57.836,313.303,57.781z"/>
							</g>
						</g>
					</g>
				</g>
			</g>
			<g>
				<path style="fill:#455A64;" d="M236.376,416.542c-0.007,1.641-1.307,2.965-2.903,2.958c-1.596-0.008-2.884-1.345-2.877-2.985
					c0.007-1.64,1.307-2.966,2.902-2.958C235.095,413.564,236.383,414.9,236.376,416.542z"/>
			</g>
			<g>
				<path style="fill:#455A64;" d="M245.332,416.583c-0.007,1.641-1.307,2.965-2.903,2.958c-1.596-0.007-2.884-1.343-2.878-2.985
					c0.007-1.64,1.307-2.965,2.903-2.958C244.05,413.605,245.338,414.941,245.332,416.583z"/>
			</g>
			<g>
				<path style="fill:#455A64;" d="M254.287,416.624c-0.007,1.64-1.307,2.966-2.903,2.958c-1.596-0.007-2.884-1.343-2.877-2.985
					c0.007-1.641,1.307-2.965,2.902-2.958C253.005,413.646,254.294,414.982,254.287,416.624z"/>
			</g>
		</g>
		<g>
			<g>
				<g>
					<path style="fill:#E0E0E0;" d="M324.838,226.585c-0.548-0.016-0.986-0.532-0.977-1.153c0.008-0.621,0.46-1.125,1.008-1.126
						c0.548-0.001,0.986,0.515,0.977,1.153C325.837,226.096,325.386,226.601,324.838,226.585z"/>
				</g>
			</g>
			<g>
				<g>
					<path style="fill:#E0E0E0;" d="M324.292,234.161c-0.544-0.065-0.934-0.619-0.87-1.236c0.064-0.618,0.559-1.079,1.105-1.031
						c0.546,0.048,0.935,0.601,0.869,1.236C325.331,233.765,324.836,234.227,324.292,234.161z"/>
				</g>
			</g>
			<g>
				<g>
					<path style="fill:#E0E0E0;" d="M323.062,241.657c-0.536-0.115-0.873-0.701-0.753-1.31c0.12-0.609,0.655-1.023,1.194-0.926
						c0.539,0.097,0.877,0.684,0.753,1.31C324.132,241.357,323.597,241.771,323.062,241.657z"/>
				</g>
			</g>
			<g>
				<g>
					<path style="fill:#E0E0E0;" d="M321.151,249.008c-0.523-0.163-0.806-0.778-0.63-1.374c0.175-0.595,0.746-0.959,1.274-0.813
						c0.528,0.146,0.81,0.761,0.63,1.374C322.244,248.807,321.674,249.171,321.151,249.008z"/>
				</g>
			</g>
			<g>
				<g>
					<path style="fill:#E0E0E0;" d="M318.574,256.153c-0.506-0.211-0.731-0.849-0.501-1.426c0.229-0.577,0.831-0.887,1.343-0.693
						c0.512,0.194,0.737,0.832,0.501,1.426C319.681,256.053,319.08,256.363,318.574,256.153z"/>
				</g>
			</g>
			<g>
				<g>
					<path style="fill:#E0E0E0;" d="M315.354,263.031c-0.485-0.256-0.65-0.912-0.369-1.465c0.281-0.553,0.908-0.807,1.401-0.567
						c0.493,0.24,0.658,0.896,0.369,1.465C316.466,263.033,315.839,263.287,315.354,263.031z"/>
				</g>
			</g>
			<g>
				<g>
					<path style="fill:#E0E0E0;" d="M311.521,269.586c-0.46-0.299-0.564-0.967-0.234-1.493c0.33-0.525,0.978-0.721,1.447-0.437
						c0.469,0.284,0.574,0.952,0.234,1.493C312.628,269.69,311.98,269.885,311.521,269.586z"/>
				</g>
			</g>
			<g>
				<g>
					<path style="fill:#E0E0E0;" d="M307.109,275.765c-0.431-0.34-0.474-1.015-0.098-1.508c0.376-0.493,1.039-0.629,1.48-0.303
						c0.441,0.325,0.485,1,0.098,1.508C308.202,275.969,307.539,276.105,307.109,275.765z"/>
				</g>
			</g>
			<g>
				<g>
					<path style="fill:#E0E0E0;" d="M302.157,281.519c-0.398-0.377-0.381-1.053,0.039-1.51c0.419-0.457,1.092-0.532,1.501-0.168
						c0.41,0.364,0.392,1.04-0.039,1.51C303.227,281.821,302.554,281.896,302.157,281.519z"/>
				</g>
			</g>
			<g>
				<g>
					<path style="fill:#E0E0E0;" d="M296.705,286.801c-0.362-0.411-0.284-1.083,0.175-1.5c0.459-0.417,1.135-0.431,1.51-0.032
						c0.375,0.4,0.297,1.071-0.175,1.5C297.743,287.198,297.067,287.212,296.705,286.801z"/>
				</g>
			</g>
			<g>
				<g>
					<path style="fill:#E0E0E0;" d="M290.799,291.568c-0.324-0.443-0.185-1.105,0.309-1.479c0.495-0.374,1.17-0.327,1.507,0.105
						c0.337,0.432,0.199,1.094-0.31,1.478C291.797,292.058,291.122,292.01,290.799,291.568z"/>
				</g>
			</g>
			<g>
				<g>
					<path style="fill:#E0E0E0;" d="M284.485,295.781c-0.282-0.47-0.084-1.117,0.443-1.444c0.527-0.328,1.194-0.22,1.491,0.241
						c0.297,0.461,0.099,1.107-0.443,1.444C285.435,296.359,284.767,296.25,284.485,295.781z"/>
				</g>
			</g>
			<g>
				<g>
					<path style="fill:#E0E0E0;" d="M277.815,299.402c-0.238-0.494,0.018-1.12,0.572-1.398c0.554-0.278,1.209-0.11,1.463,0.376
						c0.254,0.486-0.002,1.112-0.572,1.398C278.708,300.064,278.053,299.895,277.815,299.402z"/>
				</g>
			</g>
			<g>
				<g>
					<path style="fill:#E0E0E0;" d="M270.841,302.399c-0.192-0.514,0.121-1.114,0.698-1.34c0.577-0.227,1.214,0.001,1.423,0.508
						c0.208,0.507-0.104,1.107-0.698,1.34C271.67,303.14,271.033,302.912,270.841,302.399z"/>
				</g>
			</g>
			<g>
				<g>
					<path style="fill:#E0E0E0;" d="M263.622,304.745c-0.144-0.529,0.222-1.098,0.818-1.271c0.596-0.173,1.209,0.112,1.37,0.636
						c0.161,0.524-0.205,1.093-0.818,1.27C264.379,305.559,263.766,305.274,263.622,304.745z"/>
				</g>
			</g>
			<g>
				<g>
					<path style="fill:#E0E0E0;" d="M256.216,306.421c-0.095-0.54,0.322-1.073,0.931-1.19c0.609-0.117,1.194,0.222,1.307,0.759
						c0.112,0.536-0.304,1.069-0.931,1.19C256.897,307.301,256.312,306.961,256.216,306.421z"/>
				</g>
			</g>
			<g>
				<g>
					<path style="fill:#E0E0E0;" d="M248.688,307.414c-0.046-0.547,0.418-1.039,1.035-1.101c0.617-0.062,1.169,0.33,1.232,0.875
						c0.063,0.544-0.4,1.037-1.035,1.1C249.285,308.352,248.733,307.96,248.688,307.414z"/>
				</g>
			</g>
			<g>
				<g>
					<path style="fill:#E0E0E0;" d="M241.1,307.723c0.004-0.547,0.51-0.991,1.13-1.001c0.621-0.007,1.135,0.432,1.149,0.98
						c0.014,0.548-0.492,0.998-1.13,1.005C241.61,308.717,241.096,308.273,241.1,307.723z"/>
				</g>
			</g>
			<g>
				<g>
					<path style="fill:#E0E0E0;" d="M233.512,307.351c0.053-0.546,0.597-0.948,1.216-0.898c0.619,0.05,1.091,0.534,1.056,1.081
						c-0.035,0.547-0.58,0.949-1.216,0.897C233.932,308.38,233.459,307.896,233.512,307.351z"/>
				</g>
			</g>
			<g>
				<g>
					<path style="fill:#E0E0E0;" d="M225.99,306.294c0.102-0.539,0.681-0.889,1.292-0.784c0.612,0.106,1.038,0.631,0.954,1.173
						c-0.085,0.541-0.663,0.892-1.292,0.783C226.315,307.357,225.888,306.832,225.99,306.294z"/>
				</g>
			</g>
			<g>
				<g>
					<path style="fill:#E0E0E0;" d="M218.597,304.555c0.151-0.527,0.759-0.823,1.359-0.662c0.599,0.161,0.976,0.723,0.842,1.255
						c-0.134,0.531-0.742,0.828-1.358,0.662C218.823,305.643,218.446,305.081,218.597,304.555z"/>
				</g>
			</g>
			<g>
				<g>
					<path style="fill:#E0E0E0;" d="M211.394,302.145c0.199-0.511,0.832-0.75,1.413-0.535c0.582,0.216,0.906,0.81,0.723,1.327
						c-0.182,0.517-0.815,0.756-1.413,0.534C211.519,303.25,211.195,302.656,211.394,302.145z"/>
				</g>
			</g>
			<g>
				<g>
					<path style="fill:#E0E0E0;" d="M204.443,299.086c0.245-0.491,0.897-0.671,1.456-0.403c0.56,0.268,0.828,0.889,0.599,1.387
						c-0.229,0.498-0.881,0.679-1.456,0.403C204.466,300.198,204.198,299.577,204.443,299.086z"/>
				</g>
			</g>
			<g>
				<g>
					<path style="fill:#E0E0E0;" d="M197.8,295.406c0.288-0.466,0.954-0.587,1.487-0.269c0.533,0.318,0.743,0.961,0.47,1.436
						c-0.273,0.475-0.939,0.596-1.487,0.269C197.722,296.515,197.512,295.872,197.8,295.406z"/>
				</g>
			</g>
			<g>
				<g>
					<path style="fill:#E0E0E0;" d="M191.521,291.137c0.33-0.438,1.004-0.498,1.505-0.133c0.502,0.365,0.653,1.024,0.338,1.473
						c-0.315,0.448-0.989,0.508-1.505,0.132C191.342,292.235,191.191,291.575,191.521,291.137z"/>
				</g>
			</g>
			<g>
				<g>
					<path style="fill:#E0E0E0;" d="M185.654,286.318c0.368-0.406,1.044-0.405,1.511,0.004c0.467,0.409,0.557,1.079,0.203,1.497
						c-0.354,0.418-1.031,0.416-1.511-0.004C185.378,287.395,185.287,286.724,185.654,286.318z"/>
				</g>
			</g>
			<g>
				<g>
					<path style="fill:#E0E0E0;" d="M180.248,280.989c0.403-0.372,1.077-0.309,1.504,0.14c0.428,0.449,0.457,1.125,0.066,1.509
						c-0.391,0.384-1.064,0.321-1.504-0.141C179.875,282.036,179.846,281.361,180.248,280.989z"/>
				</g>
			</g>
			<g>
				<g>
					<path style="fill:#E0E0E0;" d="M175.347,275.194c0.435-0.334,1.1-0.21,1.485,0.276c0.385,0.486,0.354,1.161-0.07,1.509
						c-0.424,0.347-1.089,0.224-1.485-0.276C174.88,276.203,174.912,275.527,175.347,275.194z"/>
				</g>
			</g>
			<g>
				<g>
					<path style="fill:#E0E0E0;" d="M170.99,268.979c0.463-0.293,1.115-0.11,1.454,0.409c0.34,0.519,0.247,1.189-0.207,1.496
						c-0.454,0.307-1.105,0.124-1.454-0.409C170.434,269.942,170.527,269.272,170.99,268.979z"/>
				</g>
			</g>
			<g>
				<g>
					<path style="fill:#E0E0E0;" d="M167.216,262.395c0.488-0.25,1.12-0.008,1.411,0.54c0.291,0.547,0.138,1.206-0.342,1.471
						c-0.48,0.265-1.111,0.023-1.411-0.54C166.574,263.303,166.728,262.644,167.216,262.395z"/>
				</g>
			</g>
			<g>
				<g>
					<path style="fill:#E0E0E0;" d="M164.057,255.493c0.509-0.204,1.116,0.094,1.356,0.666c0.24,0.572,0.027,1.214-0.475,1.434
						c-0.502,0.22-1.109-0.078-1.356-0.666C163.336,256.339,163.549,255.696,164.057,255.493z"/>
				</g>
			</g>
			<g>
				<g>
					<path style="fill:#E0E0E0;" d="M161.543,248.33c0.526-0.156,1.103,0.196,1.289,0.788c0.187,0.592-0.084,1.211-0.604,1.385
						c-0.52,0.173-1.097-0.179-1.289-0.788C160.748,249.106,161.018,248.486,161.543,248.33z"/>
				</g>
			</g>
			<g>
				<g>
					<path style="fill:#E0E0E0;" d="M159.696,240.966c0.538-0.107,1.08,0.297,1.212,0.903c0.132,0.606-0.195,1.199-0.728,1.324
						c-0.533,0.125-1.076-0.279-1.212-0.903C158.832,241.666,159.159,241.074,159.696,240.966z"/>
				</g>
			</g>
			<g>
				<g>
					<path style="fill:#E0E0E0;" d="M158.529,233.463c0.545-0.058,1.049,0.394,1.124,1.01c0.076,0.616-0.303,1.176-0.846,1.252
						c-0.543,0.076-1.046-0.376-1.124-1.01C157.605,234.081,157.984,233.521,158.529,233.463z"/>
				</g>
			</g>
			<g>
				<g>
					<path style="fill:#E0E0E0;" d="M158.046,225.883c0.548-0.009,1.009,0.487,1.029,1.107c0.02,0.62-0.408,1.145-0.956,1.171
						c-0.547,0.026-1.008-0.469-1.028-1.107C157.071,226.416,157.499,225.892,158.046,225.883z"/>
				</g>
			</g>
			<g>
				<g>
					<path style="fill:#E0E0E0;" d="M158.245,218.29c0.547,0.04,0.961,0.575,0.925,1.195c-0.036,0.62-0.509,1.103-1.057,1.081
						c-0.548-0.023-0.962-0.558-0.925-1.195C157.226,218.734,157.699,218.25,158.245,218.29z"/>
				</g>
			</g>
			<g>
				<g>
					<path style="fill:#E0E0E0;" d="M159.128,210.746c0.541,0.09,0.905,0.66,0.813,1.274c-0.092,0.614-0.607,1.053-1.15,0.98
						c-0.543-0.072-0.907-0.642-0.813-1.274C158.073,211.095,158.588,210.656,159.128,210.746z"/>
				</g>
			</g>
			<g>
				<g>
					<path style="fill:#E0E0E0;" d="M160.695,203.314c0.53,0.139,0.841,0.74,0.694,1.343c-0.148,0.603-0.7,0.993-1.235,0.871
						c-0.534-0.121-0.845-0.723-0.693-1.343C159.612,203.565,160.165,203.175,160.695,203.314z"/>
				</g>
			</g>
			<g>
				<g>
					<path style="fill:#E0E0E0;" d="M162.936,196.057c0.515,0.187,0.77,0.814,0.568,1.401c-0.202,0.587-0.788,0.924-1.31,0.754
						c-0.521-0.17-0.775-0.797-0.567-1.401C161.835,196.207,162.421,195.87,162.936,196.057z"/>
				</g>
			</g>
			<g>
				<g>
					<path style="fill:#E0E0E0;" d="M165.833,189.036c0.496,0.233,0.692,0.881,0.437,1.447c-0.255,0.566-0.87,0.848-1.373,0.631
						c-0.503-0.217-0.699-0.865-0.437-1.447C164.722,189.085,165.337,188.802,165.833,189.036z"/>
				</g>
			</g>
			<g>
				<g>
					<path style="fill:#E0E0E0;" d="M169.359,182.309c0.473,0.278,0.608,0.941,0.303,1.48c-0.305,0.54-0.943,0.765-1.425,0.503
						c-0.481-0.262-0.617-0.925-0.303-1.48C168.248,182.257,168.886,182.031,169.359,182.309z"/>
				</g>
			</g>
			<g>
				<g>
					<path style="fill:#E0E0E0;" d="M173.482,175.931c0.446,0.319,0.521,0.992,0.167,1.502c-0.353,0.51-1.009,0.677-1.465,0.372
						c-0.455-0.305-0.53-0.977-0.167-1.502C172.381,175.778,173.037,175.612,173.482,175.931z"/>
				</g>
			</g>
			<g>
				<g>
					<path style="fill:#E0E0E0;" d="M178.168,169.952c0.415,0.358,0.428,1.035,0.03,1.511c-0.398,0.476-1.067,0.583-1.493,0.238
						c-0.426-0.345-0.439-1.021-0.03-1.511C177.085,169.701,177.754,169.594,178.168,169.952z"/>
				</g>
			</g>
			<g>
				<g>
					<path style="fill:#E0E0E0;" d="M183.375,164.423c0.381,0.395,0.333,1.07-0.106,1.507c-0.44,0.438-1.115,0.484-1.508,0.101
						c-0.393-0.382-0.346-1.057,0.107-1.507C182.319,164.074,182.994,164.029,183.375,164.423z"/>
				</g>
			</g>
			<g>
				<g>
					<path style="fill:#E0E0E0;" d="M189.057,159.39c0.344,0.427,0.235,1.095-0.241,1.491c-0.477,0.396-1.153,0.38-1.51-0.036
						c-0.357-0.416-0.249-1.084,0.242-1.491C188.037,158.947,188.713,158.963,189.057,159.39z"/>
				</g>
			</g>
			<g>
				<g>
					<path style="fill:#E0E0E0;" d="M195.17,154.892c0.303,0.457,0.135,1.112-0.375,1.463c-0.511,0.351-1.183,0.274-1.501-0.172
						c-0.318-0.446-0.15-1.101,0.376-1.463C194.195,154.358,194.867,154.436,195.17,154.892z"/>
				</g>
			</g>
			<g>
				<g>
					<path style="fill:#E0E0E0;" d="M201.666,150.967c0.261,0.482,0.034,1.119-0.507,1.423c-0.541,0.304-1.203,0.166-1.479-0.308
						c-0.276-0.473-0.049-1.111,0.507-1.423C200.744,150.347,201.406,150.485,201.666,150.967z"/>
				</g>
			</g>
			<g>
				<g>
					<path style="fill:#E0E0E0;" d="M208.493,147.65c0.216,0.504-0.069,1.118-0.635,1.371c-0.566,0.253-1.213,0.055-1.445-0.442
						c-0.232-0.497,0.052-1.11,0.635-1.371C207.631,146.949,208.278,147.146,208.493,147.65z"/>
				</g>
			</g>
			<g>
				<g>
					<path style="fill:#E0E0E0;" d="M215.595,144.971c0.168,0.522-0.171,1.107-0.758,1.307c-0.587,0.2-1.213-0.056-1.398-0.572
						c-0.185-0.516,0.154-1.101,0.758-1.307C214.801,144.194,215.427,144.45,215.595,144.971z"/>
				</g>
			</g>
			<g>
				<g>
					<path style="fill:#E0E0E0;" d="M222.914,142.954c0.12,0.535-0.271,1.087-0.874,1.232c-0.603,0.146-1.203-0.167-1.34-0.698
						c-0.137-0.531,0.254-1.082,0.874-1.232C222.194,142.107,222.794,142.419,222.914,142.954z"/>
				</g>
			</g>
			<g>
				<g>
					<path style="fill:#E0E0E0;" d="M230.388,141.614c0.071,0.544-0.37,1.057-0.983,1.147c-0.614,0.09-1.183-0.276-1.271-0.817
						c-0.088-0.541,0.352-1.055,0.983-1.147C229.749,140.705,230.318,141.071,230.388,141.614z"/>
				</g>
			</g>
			<g>
				<g>
					<path style="fill:#E0E0E0;" d="M237.955,140.959c0.021,0.548-0.464,1.02-1.083,1.053c-0.62,0.034-1.153-0.382-1.192-0.929
						c-0.039-0.547,0.446-1.018,1.084-1.053C237.4,139.996,237.933,140.411,237.955,140.959z"/>
				</g>
			</g>
			<g>
				<g>
					<path style="fill:#E0E0E0;" d="M245.549,140.986c-0.028,0.548-0.553,0.974-1.174,0.952c-0.62-0.022-1.115-0.484-1.104-1.032
						c0.01-0.548,0.536-0.974,1.174-0.952C245.083,139.977,245.577,140.439,245.549,140.986z"/>
				</g>
			</g>
			<g>
				<g>
					<path style="fill:#E0E0E0;" d="M253.112,141.696c-0.077,0.543-0.639,0.92-1.255,0.842c-0.616-0.078-1.066-0.582-1.007-1.127
						c0.06-0.545,0.621-0.922,1.255-0.842C252.739,140.649,253.19,141.153,253.112,141.696z"/>
				</g>
			</g>
			<g>
				<g>
					<path style="fill:#E0E0E0;" d="M260.579,143.091c-0.127,0.533-0.72,0.858-1.326,0.724c-0.606-0.133-1.009-0.677-0.899-1.215
						c0.109-0.537,0.703-0.861,1.326-0.724C260.302,142.014,260.705,142.557,260.579,143.091z"/>
				</g>
			</g>
			<g>
				<g>
					<path style="fill:#E0E0E0;" d="M267.886,145.163c-0.175,0.52-0.796,0.788-1.387,0.6c-0.591-0.188-0.942-0.767-0.784-1.292
						c0.158-0.525,0.779-0.793,1.387-0.599C267.709,144.065,268.06,144.643,267.886,145.163z"/>
				</g>
			</g>
			<g>
				<g>
					<path style="fill:#E0E0E0;" d="M274.968,147.894c-0.222,0.502-0.864,0.712-1.434,0.471c-0.571-0.241-0.867-0.849-0.661-1.357
						c0.205-0.508,0.848-0.719,1.434-0.471C274.894,146.785,275.19,147.393,274.968,147.894z"/>
				</g>
			</g>
			<g>
				<g>
					<path style="fill:#E0E0E0;" d="M281.774,151.263c-0.267,0.479-0.926,0.63-1.473,0.337c-0.547-0.293-0.787-0.926-0.536-1.413
						c0.251-0.487,0.91-0.638,1.473-0.337C281.801,150.152,282.041,150.785,281.774,151.263z"/>
				</g>
			</g>
			<g>
				<g>
					<path style="fill:#E0E0E0;" d="M288.244,155.238c-0.309,0.453-0.979,0.543-1.497,0.202c-0.518-0.341-0.699-0.993-0.405-1.456
						c0.294-0.462,0.965-0.553,1.497-0.202C288.372,154.134,288.553,154.786,288.244,155.238z"/>
				</g>
			</g>
			<g>
				<g>
					<path style="fill:#E0E0E0;" d="M294.326,159.783c-0.349,0.423-1.025,0.452-1.509,0.065c-0.485-0.387-0.606-1.052-0.271-1.486
						c0.335-0.434,1.011-0.463,1.509-0.065C294.553,158.695,294.675,159.36,294.326,159.783z"/>
				</g>
			</g>
			<g>
				<g>
					<path style="fill:#E0E0E0;" d="M299.971,164.859c-0.386,0.39-1.061,0.358-1.509-0.071c-0.448-0.429-0.508-1.103-0.136-1.505
						c0.373-0.402,1.048-0.37,1.509,0.072C300.296,163.796,300.357,164.469,299.971,164.859z"/>
				</g>
			</g>
			<g>
				<g>
					<path style="fill:#E0E0E0;" d="M305.134,170.423c-0.419,0.353-1.089,0.261-1.496-0.207c-0.407-0.468-0.407-1.144,0.001-1.511
						c0.408-0.366,1.077-0.274,1.496,0.207C305.553,169.394,305.553,170.07,305.134,170.423z"/>
				</g>
			</g>
			<g>
				<g>
					<path style="fill:#E0E0E0;" d="M309.772,176.431c-0.45,0.314-1.108,0.161-1.471-0.342c-0.363-0.503-0.302-1.176,0.138-1.505
						c0.439-0.328,1.098-0.175,1.471,0.342C310.283,175.444,310.221,176.118,309.772,176.431z"/>
				</g>
			</g>
			<g>
				<g>
					<path style="fill:#E0E0E0;" d="M313.846,182.835c-0.476,0.272-1.118,0.06-1.434-0.474c-0.316-0.534-0.194-1.199,0.274-1.486
						c0.467-0.287,1.109-0.075,1.434,0.474C314.445,181.898,314.322,182.563,313.846,182.835z"/>
				</g>
			</g>
			<g>
				<g>
					<path style="fill:#E0E0E0;" d="M317.321,189.583c-0.499,0.227-1.119-0.042-1.385-0.603c-0.266-0.56-0.083-1.211,0.408-1.455
						c0.491-0.243,1.111,0.027,1.385,0.603C318.002,188.704,317.819,189.356,317.321,189.583z"/>
				</g>
			</g>
			<g>
				<g>
					<path style="fill:#E0E0E0;" d="M320.165,196.62c-0.518,0.181-1.111-0.145-1.324-0.727c-0.214-0.582,0.028-1.214,0.539-1.411
						c0.511-0.197,1.104,0.128,1.324,0.727C320.923,195.808,320.682,196.44,320.165,196.62z"/>
				</g>
			</g>
			<g>
				<g>
					<path style="fill:#E0E0E0;" d="M322.352,203.89c-0.532,0.132-1.093-0.246-1.252-0.845c-0.16-0.6,0.139-1.206,0.666-1.356
						c0.527-0.15,1.088,0.229,1.252,0.846C323.182,203.15,322.884,203.758,322.352,203.89z"/>
				</g>
			</g>
			<g>
				<g>
					<path style="fill:#E0E0E0;" d="M323.865,211.33c-0.542,0.083-1.066-0.345-1.17-0.956c-0.104-0.612,0.248-1.189,0.787-1.29
						c0.539-0.101,1.062,0.327,1.169,0.956C324.76,210.67,324.407,211.247,323.865,211.33z"/>
				</g>
			</g>
			<g>
				<g>
					<path style="fill:#E0E0E0;" d="M324.695,218.879c-0.547,0.034-1.03-0.44-1.078-1.059c-0.048-0.619,0.355-1.162,0.901-1.213
						c0.546-0.051,1.028,0.423,1.078,1.059C325.645,218.302,325.242,218.845,324.695,218.879z"/>
				</g>
			</g>
		</g>
		<g>
			<g>
				<g>
					<path style="fill:#263238;" d="M322.989,91.202c0,0.71-0.576,1.286-1.286,1.286c-0.71,0-1.286-0.576-1.286-1.286
						c0-0.71,0.576-1.286,1.286-1.286C322.413,89.917,322.989,90.492,322.989,91.202z"/>
				</g>
			</g>
			<g>
				<g>
					<path style="fill:#263238;" d="M322.989,95.827c0,0.71-0.576,1.286-1.286,1.286c-0.71,0-1.286-0.576-1.286-1.286
						c0-0.71,0.576-1.286,1.286-1.286C322.413,94.542,322.989,95.118,322.989,95.827z"/>
				</g>
			</g>
			<g>
				<g>
					<path style="fill:#263238;" d="M322.989,100.453c0,0.71-0.576,1.286-1.286,1.286c-0.71,0-1.286-0.576-1.286-1.286
						c0-0.71,0.576-1.286,1.286-1.286C322.413,99.167,322.989,99.743,322.989,100.453z"/>
				</g>
			</g>
		</g>
		<g>
			<g>
				<path style="fill:#263238;" d="M170.079,88.907c0-0.018,0.158,0.107,0.46,0.362c0.348,0.299,0.788,0.678,1.33,1.144
					c1.219,1.075,2.891,2.548,4.932,4.347l0.061,0.054l0.001,0.086c0.014,2.208,0.029,4.781,0.047,7.598l0.001,0.234l-0.236,0.001
					c-1.519,0.005-3.124,0.01-4.787,0.015l-0.249,0.001l0-0.251c-0.002-1.462-0.004-2.99-0.006-4.553l0.256,0.256
					c-0.574,0-1.189,0-1.808,0c-0.49,0-0.977,0-1.461,0l0.256-0.256c-0.002,1.557-0.004,3.078-0.006,4.553l0,0.251l-0.25-0.001
					c-1.787-0.006-3.505-0.011-5.137-0.016l-0.236-0.001l0.002-0.234c0.017-2.817,0.033-5.374,0.047-7.598l0-0.086l0.061-0.054
					c2.041-1.799,3.713-3.272,4.932-4.347c0.542-0.466,0.982-0.845,1.33-1.144C169.921,89.014,170.079,88.889,170.079,88.907
					c0,0.019-0.158,0.18-0.455,0.47c-0.339,0.325-0.768,0.736-1.296,1.241c-1.166,1.093-2.766,2.591-4.719,4.421l0.062-0.139
					c0.014,2.224,0.029,4.781,0.046,7.598l-0.234-0.235c1.632-0.005,3.35-0.01,5.137-0.016l-0.25,0.25
					c-0.002-1.475-0.004-2.996-0.006-4.553l0-0.256l0.257,0c0.483,0,0.97,0,1.461,0c0.619,0,1.234,0,1.808,0h0.256l0,0.256
					c-0.002,1.563-0.004,3.091-0.006,4.553l-0.249-0.249c1.663,0.005,3.268,0.01,4.787,0.015l-0.235,0.234
					c0.017-2.817,0.033-5.39,0.046-7.598l0.062,0.139c-1.953-1.83-3.553-3.328-4.719-4.421c-0.528-0.506-0.956-0.916-1.295-1.241
					C170.236,89.087,170.079,88.926,170.079,88.907z"/>
			</g>
		</g>
		<g>
			<g>
				<path style="fill:#E8505B;" d="M227.067,337.163v13.709h-3.173v-5.621h-6.228v5.621h-3.173v-13.709h3.173v5.405h6.228v-5.405
					H227.067z"/>
				<path style="fill:#E8505B;" d="M240.362,346.465h-7.971c0.294,1.312,1.41,2.115,3.016,2.115c1.116,0,1.919-0.333,2.644-1.018
					l1.625,1.762c-0.979,1.116-2.448,1.704-4.348,1.704c-3.643,0-6.012-2.291-6.012-5.425c0-3.153,2.409-5.425,5.621-5.425
					c3.094,0,5.483,2.076,5.483,5.464C240.421,345.878,240.382,346.211,240.362,346.465z M232.352,344.683h5.19
					c-0.216-1.332-1.214-2.194-2.585-2.194C233.566,342.489,232.568,343.331,232.352,344.683z"/>
				<path style="fill:#E8505B;" d="M242.456,336.34h3.055v14.531h-3.055V336.34z"/>
				<path style="fill:#E8505B;" d="M248.349,336.34h3.055v14.531h-3.055V336.34z"/>
				<path style="fill:#E8505B;" d="M253.46,345.604c0-3.173,2.448-5.425,5.797-5.425c3.349,0,5.777,2.252,5.777,5.425
					c0,3.172-2.428,5.425-5.777,5.425C255.908,351.028,253.46,348.776,253.46,345.604z M261.939,345.604
					c0-1.822-1.155-2.918-2.683-2.918c-1.528,0-2.703,1.096-2.703,2.918c0,1.821,1.175,2.918,2.703,2.918
					C260.784,348.522,261.939,347.424,261.939,345.604z"/>
				<path style="fill:#E8505B;" d="M266.618,349.246c0-0.998,0.784-1.743,1.88-1.743s1.88,0.745,1.88,1.743
					c0,0.979-0.784,1.783-1.88,1.783S266.618,350.225,266.618,349.246z M266.676,337.163h3.643l-0.607,8.95h-2.428L266.676,337.163z
					"/>
			</g>
		</g>
		<g>
			<g>
				<g>
					<path style="fill:#263238;" d="M310.594,372.065c0,0.117-31.809,0.211-71.039,0.211c-39.243,0-71.046-0.095-71.046-0.211
						c0-0.116,31.802-0.211,71.046-0.211C278.785,371.854,310.594,371.948,310.594,372.065z"/>
				</g>
			</g>
			<g>
				<g>
					<path style="fill:#263238;" d="M310.594,386.259c0,0.117-31.809,0.211-71.039,0.211c-39.243,0-71.046-0.095-71.046-0.211
						c0-0.117,31.802-0.211,71.046-0.211C278.785,386.048,310.594,386.143,310.594,386.259z"/>
				</g>
			</g>
			<g>
				<g>
					<path style="fill:#263238;" d="M270.399,400.454c0,0.117-13.812,0.211-30.846,0.211c-17.04,0-30.849-0.095-30.849-0.211
						c0-0.117,13.809-0.211,30.849-0.211C256.587,400.243,270.399,400.337,270.399,400.454z"/>
				</g>
			</g>
		</g>
	</g>
</g>
<g id="Character_1_">
	<g>
		<g>
			
				<ellipse transform="matrix(0.7071 -0.7071 0.7071 0.7071 -88.1936 235.5254)" style="fill:#FFFFFF;" cx="240.208" cy="224.222" rx="76.817" ry="76.817"/>
		</g>
		<g>
			<g>
				<g>
					<path style="fill:#263238;" d="M287.7,201.751c-0.196-5.659,3.28-11.457,1.228-16.734c-1.524-3.92-5.714-6.277-7.403-10.129
						c-1.63-3.719-0.616-7.989,0.067-11.992c0.683-4.003,0.818-8.636-2.015-11.545c-2.329-2.391-6.055-2.921-8.506-5.187
						c-2.227-2.058-3.053-5.235-3.242-8.261c-0.189-3.027,0.15-6.08-0.235-9.089c-0.789-6.166-4.811-11.826-10.375-14.6
						c-5.564-2.773-12.505-2.578-17.714,2.784l18.676,70.957C268.681,189.82,278.422,194.83,287.7,201.751z"/>
				</g>
				<g>
					<g>
						<path style="fill:#263238;" d="M288.109,172.733c0,0,0.231,0.04,0.584,0.296c0.342,0.256,0.784,0.787,0.949,1.607
							c0.16,0.786,0.084,1.946-0.791,2.813c-0.85,0.856-2.347,1.201-3.78,0.774c-1.467-0.394-2.705-1.749-3.234-3.401
							c-0.573-1.663-0.44-3.601,0.08-5.452c0.504-1.87,1.37-3.698,1.996-5.661c0.643-1.951,0.856-4.113,0.445-6.252
							c-0.765-4.297-3.638-7.878-7.066-9.445c-1.704-0.821-3.451-1.364-4.994-2.12c-1.552-0.73-2.867-1.752-3.746-2.93
							c-0.901-1.164-1.431-2.407-1.728-3.527c-0.299-1.124-0.361-2.133-0.321-2.946c0.033-0.816,0.173-1.437,0.282-1.849
							c0.127-0.409,0.199-0.62,0.213-0.616c0.063,0.013-0.306,0.861-0.331,2.471c-0.015,0.799,0.07,1.786,0.384,2.878
							c0.311,1.088,0.847,2.29,1.736,3.406c0.87,1.131,2.134,2.093,3.663,2.798c1.519,0.729,3.263,1.257,5.011,2.086
							c3.545,1.598,6.526,5.288,7.313,9.72c0.426,2.201,0.198,4.463-0.466,6.453c-0.645,1.999-1.514,3.814-2.015,5.639
							c-0.518,1.81-0.652,3.656-0.122,5.239c0.492,1.576,1.632,2.841,2.987,3.225c1.336,0.417,2.735,0.115,3.531-0.659
							c0.813-0.769,0.922-1.859,0.792-2.611c-0.132-0.783-0.529-1.304-0.841-1.571C288.317,172.828,288.096,172.76,288.109,172.733z
							"/>
					</g>
				</g>
			</g>
			<g>
				<path style="fill:#263238;" d="M221.879,123.529c-2.681,7.285-3.883,13.196-6.505,18.99c-1.484,3.279-3.455,6.573-3.272,10.168
					c0.125,2.466,1.275,4.821,1.211,7.289c-0.113,4.35-3.807,7.625-7.083,10.489c-3.276,2.864-6.701,6.631-6.023,10.93
					c0.295,1.868,1.361,3.567,1.523,5.452c0.198,2.302-0.985,4.504-2.407,6.326c-1.422,1.822-3.127,3.441-4.271,5.448l-0.511,3.47
					l40.953-12.949"/>
			</g>
			<g>
				<g>
					<path style="fill:#FFBE9D;" d="M322.082,186.855c-1.031-6.857-0.049-13.804-0.32-17.382c-0.504-6.66-1.106-6.638-1.877-6.467
						c-2.07,0.461,0.441,11.738-1.509,9.591c-1.949-2.148-1.462-14.108-3.604-13.537c-2.791,0.743,0.055,12.506,0.222,13.518
						c0.162,0.983-1.295,1.25-1.397,0.33c-0.147-1.322-2.028-15.182-4.777-14.479c-1.524,0.39-0.496,3.057-0.496,3.057
						s2.72,12.863,1.411,13.152c-1.33,0.293-3.182-7.212-3.628-9.782c-0.44-2.539-1.832-3.394-2.8-2.294
						c-0.66,0.75,0.517,8.649,1.017,11.181c0.5,2.532,1.995,9.459-1.529,6.571c-3.524-2.888-7.297-3.816-8.477-3.368
						c-1.18,0.449-0.938,2.257,0.422,2.626c1.1,0.299,2.79,1.357,4.029,2.204c1.021,0.697,1.826,1.637,2.663,2.544
						c0.892,0.966,4.136,4.928,4.916,8.913L322.082,186.855"/>
				</g>
				<g>
					<g>
						<path style="fill:#EB996E;" d="M317.711,183.342c0.017,0.064-0.431,0.172-1.054,0.589c-0.611,0.405-1.409,1.197-1.719,2.374
							l-0.145,0.551l-0.293-0.495c-0.382-0.646-0.922-1.285-1.593-1.83c-1.434-1.176-3.12-1.655-4.326-1.737
							c-1.22-0.112-1.978,0.11-1.997,0.014c-0.019-0.039,0.722-0.396,2.013-0.377c1.271-0.009,3.097,0.441,4.635,1.703
							c0.719,0.584,1.292,1.282,1.682,1.99l-0.437,0.056c0.393-1.326,1.332-2.137,2.029-2.499
							C317.222,183.307,317.706,183.301,317.711,183.342z"/>
					</g>
				</g>
			</g>
			<g>
				<g>
					<path style="fill:#E8505B;" d="M322.608,185.525l-17.423,6.87l5.068,39.057l-3.67-5.605l-6.898-8.972
						c-18.462-31.789-42.112-26.762-42.112-26.762l-31.134-2.428c0,0-19.706,0.354-31.066,13.244
						c-2.921,3.314-19.819,37.11-26.805,51.194c4.314,11.061,11.117,20.876,19.722,28.757l17.76-36.697l3.007,12.869
						c2.021,6.986,2.05,14.398,0.084,21.4l-4.78,13.747c10.69,5.641,22.869,8.839,35.797,8.839c13.923,0,26.98-3.704,38.241-10.18
						l-4.583-10.879c-3.049-7.292-3.85-15.329-2.297-23.079l3.331-16.629l18.603,17.693c2.17,2.428,4.298,4.405,6.323,6.013l0,0l0,0
						c8.608,6.838,15.332,7.025,15.332,7.025C344.596,269.818,322.608,185.525,322.608,185.525z"/>
				</g>
				<g>
					<path style="fill:#FAFAFA;" d="M216.467,220.145c0,0.631-0.512,1.143-1.143,1.143c-0.631,0-1.142-0.511-1.142-1.143
						c0-0.631,0.512-1.142,1.142-1.142C215.956,219.003,216.467,219.514,216.467,220.145z"/>
				</g>
				<g>
					<path style="fill:#FAFAFA;" d="M208.231,232.048c0,0.631-0.512,1.143-1.142,1.143c-0.631,0-1.143-0.511-1.143-1.143
						c0-0.631,0.512-1.142,1.143-1.142C207.72,230.906,208.231,231.417,208.231,232.048z"/>
				</g>
				<g>
					<path style="fill:#FAFAFA;" d="M234.222,220.145c0,0.631-0.511,1.143-1.142,1.143s-1.143-0.511-1.143-1.143
						c0-0.631,0.512-1.142,1.143-1.142S234.222,219.514,234.222,220.145z"/>
				</g>
				<g>
					<path style="fill:#FAFAFA;" d="M207.912,196.296c0,0.631-0.512,1.143-1.142,1.143c-0.631,0-1.143-0.512-1.143-1.143
						s0.511-1.143,1.143-1.143C207.4,195.154,207.912,195.665,207.912,196.296z"/>
				</g>
				<g>
					<path style="fill:#FAFAFA;" d="M242.441,233.735c0,0.631-0.512,1.143-1.143,1.143c-0.631,0-1.142-0.512-1.142-1.143
						c0-0.631,0.511-1.143,1.142-1.143C241.93,232.593,242.441,233.104,242.441,233.735z"/>
				</g>
				<g>
					<path style="fill:#FAFAFA;" d="M256.526,228.925c0,0.631-0.512,1.143-1.143,1.143c-0.631,0-1.142-0.512-1.142-1.143
						s0.512-1.143,1.142-1.143C256.014,227.783,256.526,228.294,256.526,228.925z"/>
				</g>
				<g>
					<path style="fill:#FAFAFA;" d="M279.241,217.544c0,0.631-0.512,1.143-1.142,1.143c-0.631,0-1.143-0.512-1.143-1.143
						c0-0.631,0.512-1.143,1.143-1.143C278.729,216.402,279.241,216.913,279.241,217.544z"/>
				</g>
				<g>
					<path style="fill:#FAFAFA;" d="M300.303,236.282c0,0.631-0.512,1.143-1.143,1.143c-0.631,0-1.142-0.512-1.142-1.143
						c0-0.631,0.512-1.142,1.142-1.142C299.792,235.139,300.303,235.651,300.303,236.282z"/>
				</g>
				<g>
					<path style="fill:#FAFAFA;" d="M311.417,242.659c0,0.631-0.512,1.142-1.142,1.142c-0.631,0-1.142-0.512-1.142-1.142
						c0-0.631,0.511-1.143,1.142-1.143C310.905,241.516,311.417,242.028,311.417,242.659z"/>
				</g>
				<g>
					<path style="fill:#FAFAFA;" d="M314.581,258.768c0,0.631-0.511,1.142-1.142,1.142c-0.631,0-1.142-0.511-1.142-1.142
						c0-0.631,0.512-1.142,1.142-1.142C314.07,257.626,314.581,258.138,314.581,258.768z"/>
				</g>
				<g>
					<path style="fill:#FAFAFA;" d="M325.422,247.317c0,0.631-0.512,1.143-1.142,1.143c-0.631,0-1.143-0.512-1.143-1.143
						c0-0.631,0.512-1.142,1.143-1.142C324.91,246.175,325.422,246.686,325.422,247.317z"/>
				</g>
				<g>
					<path style="fill:#FAFAFA;" d="M318.116,232.048c0,0.631-0.512,1.143-1.143,1.143c-0.631,0-1.142-0.511-1.142-1.143
						c0-0.631,0.511-1.142,1.142-1.142C317.604,230.906,318.116,231.417,318.116,232.048z"/>
				</g>
				<g>
					<path style="fill:#FAFAFA;" d="M325.422,219.003c0,0.631-0.512,1.142-1.142,1.142c-0.631,0-1.143-0.511-1.143-1.142
						c0-0.631,0.512-1.143,1.143-1.143C324.91,217.86,325.422,218.372,325.422,219.003z"/>
				</g>
				<g>
					<path style="fill:#FAFAFA;" d="M316.31,207.591c0,0.631-0.512,1.143-1.143,1.143c-0.631,0-1.142-0.511-1.142-1.143
						c0-0.631,0.512-1.142,1.142-1.142C315.798,206.449,316.31,206.96,316.31,207.591z"/>
				</g>
				<g>
					<path style="fill:#FAFAFA;" d="M322.726,195.154c0,0.631-0.511,1.143-1.142,1.143c-0.631,0-1.143-0.512-1.143-1.143
						c0-0.631,0.512-1.143,1.143-1.143C322.215,194.011,322.726,194.523,322.726,195.154z"/>
				</g>
				<g>
					<path style="fill:#FAFAFA;" d="M297.707,252.965c0,0.631-0.512,1.142-1.142,1.142c-0.631,0-1.143-0.512-1.143-1.142
						c0-0.631,0.512-1.143,1.143-1.143C297.196,251.822,297.707,252.334,297.707,252.965z"/>
				</g>
				<g>
					<path style="fill:#FAFAFA;" d="M284.981,234.878c0,0.631-0.512,1.142-1.142,1.142c-0.631,0-1.142-0.512-1.142-1.142
						c0-0.631,0.512-1.143,1.142-1.143C284.47,233.735,284.981,234.247,284.981,234.878z"/>
				</g>
				<g>
					<path style="fill:#FAFAFA;" d="M300.303,222.813c0,0.631-0.512,1.142-1.143,1.142c-0.631,0-1.142-0.511-1.142-1.142
						c0-0.631,0.512-1.143,1.142-1.143C299.792,221.671,300.303,222.182,300.303,222.813z"/>
				</g>
				<g>
					<circle style="fill:#FAFAFA;" cx="221.507" cy="205.306" r="1.143"/>
				</g>
				<g>
					<path style="fill:#FAFAFA;" d="M191.872,230.906c0,0.631-0.511,1.142-1.142,1.142c-0.631,0-1.143-0.511-1.143-1.142
						c0-0.631,0.512-1.143,1.143-1.143C191.361,229.763,191.872,230.275,191.872,230.906z"/>
				</g>
				<g>
					<path style="fill:#FAFAFA;" d="M190.73,261.029c0,0.631-0.512,1.143-1.143,1.143c-0.631,0-1.142-0.512-1.142-1.143
						c0-0.631,0.512-1.142,1.142-1.142C190.218,259.886,190.73,260.398,190.73,261.029z"/>
				</g>
				<g>
					<circle style="fill:#FAFAFA;" cx="179.792" cy="267.537" r="1.143"/>
				</g>
				<g>
					<path style="fill:#FAFAFA;" d="M218.752,236.282c0,0.631-0.511,1.143-1.143,1.143c-0.631,0-1.142-0.512-1.142-1.143
						c0-0.631,0.511-1.142,1.142-1.142C218.241,235.139,218.752,235.651,218.752,236.282z"/>
				</g>
				<g>
					<path style="fill:#FAFAFA;" d="M234.619,243.801c0,0.631-0.511,1.143-1.142,1.143s-1.143-0.512-1.143-1.143
						s0.512-1.142,1.143-1.142S234.619,243.17,234.619,243.801z"/>
				</g>
				<g>
					<path style="fill:#FAFAFA;" d="M263.033,244.944c0,0.631-0.512,1.142-1.142,1.142c-0.631,0-1.142-0.511-1.142-1.142
						c0-0.631,0.511-1.143,1.142-1.143C262.522,243.801,263.033,244.313,263.033,244.944z"/>
				</g>
				<g>
					<path style="fill:#FAFAFA;" d="M270.396,229.763c0,0.631-0.512,1.143-1.143,1.143c-0.631,0-1.142-0.512-1.142-1.143
						c0-0.631,0.512-1.142,1.142-1.142C269.884,228.621,270.396,229.132,270.396,229.763z"/>
				</g>
				<g>
					<path style="fill:#FAFAFA;" d="M264.862,283.109c0,0.631-0.511,1.143-1.142,1.143s-1.142-0.512-1.142-1.143
						c0-0.631,0.511-1.142,1.142-1.142S264.862,282.478,264.862,283.109z"/>
				</g>
				<g>
					<path style="fill:#FAFAFA;" d="M264.862,294.993c0,0.631-0.511,1.143-1.142,1.143s-1.142-0.512-1.142-1.143
						c0-0.631,0.511-1.142,1.142-1.142S264.862,294.362,264.862,294.993z"/>
				</g>
				<g>
					<path style="fill:#FAFAFA;" d="M269.253,263.314c0,0.631-0.512,1.142-1.142,1.142c-0.631,0-1.143-0.512-1.143-1.142
						c0-0.631,0.512-1.142,1.143-1.142C268.742,262.172,269.253,262.683,269.253,263.314z"/>
				</g>
				<g>
					<path style="fill:#FAFAFA;" d="M249.682,254.107c0,0.631-0.512,1.142-1.142,1.142c-0.631,0-1.143-0.511-1.143-1.142
						c0-0.631,0.511-1.142,1.143-1.142C249.17,252.965,249.682,253.477,249.682,254.107z"/>
				</g>
				<g>
					<path style="fill:#FAFAFA;" d="M254.241,268.679c0,0.631-0.512,1.142-1.143,1.142s-1.142-0.511-1.142-1.142
						s0.511-1.142,1.142-1.142S254.241,268.048,254.241,268.679z"/>
				</g>
				<g>
					<path style="fill:#FAFAFA;" d="M232.334,262.172c0,0.631-0.512,1.142-1.143,1.142c-0.631,0-1.142-0.512-1.142-1.142
						c0-0.631,0.511-1.143,1.142-1.143C231.822,261.029,232.334,261.54,232.334,262.172z"/>
				</g>
				<g>
					<path style="fill:#FAFAFA;" d="M227.524,289.051c0,0.631-0.511,1.142-1.142,1.142c-0.631,0-1.143-0.511-1.143-1.142
						c0-0.631,0.511-1.142,1.143-1.142C227.012,287.909,227.524,288.42,227.524,289.051z"/>
				</g>
				<g>
					<path style="fill:#FAFAFA;" d="M238.265,278.299c0,0.631-0.512,1.143-1.143,1.143s-1.143-0.512-1.143-1.143
						c0-0.631,0.512-1.142,1.143-1.142S238.265,277.668,238.265,278.299z"/>
				</g>
				<g>
					<path style="fill:#FAFAFA;" d="M215.48,292.73c0,0.631-0.512,1.142-1.143,1.142c-0.631,0-1.143-0.512-1.143-1.142
						c0-0.631,0.512-1.143,1.143-1.143C214.969,291.587,215.48,292.099,215.48,292.73z"/>
				</g>
				<g>
					<circle style="fill:#FAFAFA;" cx="238.265" cy="299.237" r="1.143"/>
				</g>
				<g>
					<path style="fill:#FAFAFA;" d="M250.715,290.194c0,0.631-0.512,1.143-1.143,1.143c-0.631,0-1.143-0.512-1.143-1.143
						c0-0.631,0.512-1.142,1.143-1.142C250.203,289.051,250.715,289.563,250.715,290.194z"/>
				</g>
				<g>
					<path style="fill:#FAFAFA;" d="M217.61,254.107c0,0.631-0.511,1.142-1.142,1.142c-0.631,0-1.143-0.511-1.143-1.142
						c0-0.631,0.511-1.142,1.143-1.142C217.098,252.965,217.61,253.477,217.61,254.107z"/>
				</g>
				<g>
					<circle style="fill:#FAFAFA;" cx="217.033" cy="276.036" r="1.143"/>
				</g>
				<g>
					<path style="fill:#FAFAFA;" d="M178.878,248.46c0,0.631-0.511,1.143-1.142,1.143c-0.631,0-1.143-0.512-1.143-1.143
						s0.511-1.143,1.143-1.143C178.367,247.317,178.878,247.829,178.878,248.46z"/>
				</g>
				<g>
					<path style="fill:#FAFAFA;" d="M195.684,247.317c0,0.631-0.512,1.143-1.143,1.143c-0.631,0-1.142-0.512-1.142-1.143
						c0-0.631,0.511-1.142,1.142-1.142C195.173,246.175,195.684,246.686,195.684,247.317z"/>
				</g>
				<g>
					<path style="fill:#FAFAFA;" d="M201.21,211.807c0,0.631-0.512,1.143-1.143,1.143s-1.142-0.511-1.142-1.143
						c0-0.631,0.511-1.142,1.142-1.142S201.21,211.176,201.21,211.807z"/>
				</g>
				<g style="opacity:0.2;">
					<path d="M206.049,244.183c0,0,3.021-6.859,2.875-6.759c-0.146,0.1,2.872,26.131,1.544,33.579
						C210.468,271.004,209.304,255.806,206.049,244.183z"/>
				</g>
				<g style="opacity:0.2;">
					<g>
						<path d="M253.99,204.415l-7.443,8.06c-0.253,3.76,2.114,9.245,4.301,12.315c0.989,1.389,2.309,2.771,4.01,2.897
							c0.896,0.066,1.774-0.231,2.623-0.525c6.618-2.288,13.236-4.577,19.855-6.865c-0.546-0.89-1.092-1.78-1.639-2.67
							c2.485,1.637,5.709,2.1,8.554,1.228c2.845-0.872,5.256-3.062,6.396-5.811c-6.829-3.05-11.528-9.55-11.526-17.029l-3.677-2.08
							L253.99,204.415z"/>
					</g>
				</g>
				<g style="opacity:0.2;">
					<g>
						<path d="M266.387,258.492c0.205,0.559-8.706,4.317-19.674,8.958c-10.977,4.629-19.882,8.398-20.14,7.861
							c-0.249-0.514,8.287-5.155,19.318-9.807C256.913,260.84,266.193,257.955,266.387,258.492z"/>
					</g>
				</g>
				<g>
					<g>
						<path style="fill:#263238;" d="M312.882,247.189c-0.115,0.021-0.883-3.548-1.717-7.973c-0.834-4.426-1.416-8.03-1.302-8.051
							c0.115-0.022,0.883,3.548,1.717,7.973C312.414,243.563,312.996,247.167,312.882,247.189z"/>
					</g>
				</g>
				<g>
					<g>
						<path style="fill:#263238;" d="M316.785,245.568c-0.044,0.03-0.578-0.664-1.332-1.86c-0.754-1.195-1.711-2.903-2.599-4.871
							c-0.886-1.97-1.531-3.819-1.926-5.175c-0.396-1.357-0.561-2.217-0.51-2.23c0.061-0.017,0.328,0.813,0.794,2.138
							c0.465,1.326,1.148,3.141,2.026,5.094c0.88,1.951,1.786,3.666,2.471,4.893C316.394,244.783,316.838,245.533,316.785,245.568z"
							/>
					</g>
				</g>
				<g>
					<g>
						<path style="fill:#263238;" d="M209.286,232.074c-0.014-0.001-0.018-0.136-0.01-0.391c0.014-0.304,0.032-0.671,0.053-1.113
							c0.058-1.032,0.135-2.412,0.229-4.086c0.147-3.436,0.329-8.254-0.773-13.395c-1.111-5.138-3.634-9.353-6.065-11.763
							c-2.422-2.458-4.48-3.267-4.413-3.364c0.006-0.013,0.13,0.037,0.362,0.145c0.226,0.117,0.582,0.254,0.994,0.511
							c0.85,0.47,2.015,1.284,3.268,2.496c2.527,2.395,5.141,6.668,6.267,11.884c1.117,5.212,0.882,10.064,0.659,13.503
							c-0.122,1.727-0.259,3.121-0.363,4.083c-0.053,0.439-0.096,0.804-0.132,1.106
							C209.326,231.943,209.301,232.075,209.286,232.074z"/>
					</g>
				</g>
				<g>
					<g>
						<path style="fill:#263238;" d="M274.087,218.116c0.054-0.007,0.243,0.967,0.439,2.557c0.197,1.59,0.384,3.799,0.442,6.245
							c0.057,2.447-0.027,4.662-0.148,6.26c-0.121,1.598-0.264,2.58-0.318,2.575c-0.062-0.005-0.024-0.994,0.02-2.59
							c0.045-1.596,0.08-3.801,0.024-6.235c-0.058-2.433-0.197-4.633-0.317-6.225C274.109,219.11,274.025,218.124,274.087,218.116z"
							/>
					</g>
				</g>
			</g>
			<g>
				<path style="fill:#263238;" d="M230.049,186.855c0.633-7.937,9.792-3.108,8.771-11.005c-2.298-17.782-3.158-35.749-2.57-53.67"
					/>
			</g>
			<g>
				<path style="fill:#FFBE9D;" d="M257.836,187.063l3.541-54.248c-9.052-12.423-21.25-15.049-36.092-10.634
					c0,0-6.303,26.22-5.558,38.75c0.781,13.138,10.534,15.76,10.534,15.76s-0.344,4.423-0.819,9.835
					c-2.525,0.412-5.171,0.951-7.935,1.638c-1.062,0.264,19.637,30.162,19.637,30.162l25.824-27.967
					C266.968,190.36,263.85,188.505,257.836,187.063z"/>
			</g>
			<g>
				<g>
					<g>
						<g>
							<g>
								<g>
									<g>
										<g>
											<g>
												<path style="fill:#263238;" d="M225.299,142.725c-0.117,0.873,0.525,1.692,1.435,1.831
													c0.908,0.139,1.74-0.454,1.857-1.328c0.117-0.873-0.525-1.693-1.433-1.832
													C226.249,141.257,225.416,141.852,225.299,142.725z"/>
											</g>
										</g>
										<g>
											<g>
												<g>
													<path style="fill:#263238;" d="M223.308,141.295c0.184,0.236,1.533-0.57,3.318-0.389
														c1.785,0.155,3.005,1.202,3.22,1.002c0.105-0.087-0.066-0.498-0.596-0.97c-0.521-0.469-1.439-0.965-2.552-1.07
														c-1.113-0.103-2.088,0.214-2.667,0.58C223.44,140.815,223.216,141.188,223.308,141.295z"/>
												</g>
											</g>
										</g>
									</g>
									<g>
										<g>
											<g>
												<path style="fill:#263238;" d="M243.543,144.839c-0.117,0.873,0.526,1.692,1.435,1.831
													c0.908,0.139,1.74-0.454,1.857-1.327c0.117-0.873-0.525-1.693-1.433-1.832
													C244.493,143.371,243.661,143.966,243.543,144.839z"/>
											</g>
										</g>
										<g>
											<g>
												<g>
													<path style="fill:#263238;" d="M241.577,143.381c0.185,0.237,1.535-0.569,3.318-0.389
														c1.785,0.155,3.005,1.202,3.22,1.002c0.104-0.087-0.065-0.498-0.596-0.97c-0.521-0.469-1.439-0.965-2.551-1.07
														c-1.113-0.103-2.088,0.214-2.668,0.58C241.712,142.901,241.486,143.274,241.577,143.381z"/>
												</g>
											</g>
										</g>
									</g>
									<g>
										<g>
											<g>
												<path style="fill:#263238;" d="M233.574,155.686c0.018-0.101-1.073-0.402-2.848-0.809
													c-0.451-0.092-0.874-0.225-0.92-0.544c-0.075-0.34,0.164-0.813,0.437-1.321c0.537-1.061,1.1-2.173,1.69-3.339
													c2.358-4.758,4.114-8.689,3.921-8.782c-0.193-0.093-2.26,3.688-4.619,8.446c-0.57,1.174-1.116,2.293-1.635,3.365
													c-0.224,0.501-0.578,1.059-0.413,1.766c0.089,0.353,0.4,0.633,0.684,0.74c0.283,0.118,0.54,0.148,0.764,0.184
													C232.435,155.669,233.557,155.787,233.574,155.686z"/>
											</g>
										</g>
									</g>
									<g>
										<g>
											<path style="fill:#EB996E;" d="M230.261,176.691c0,0,8.648,1.417,17.779-2.917c0,0-5.077,8.473-17.905,5.988
												L230.261,176.691z"/>
										</g>
									</g>
									<g>
										<g>
											<path style="fill:#EB996E;" d="M233.905,160.063c0.726-0.786,1.896-1.141,3.001-0.911c0.767,0.16,1.512,0.61,1.921,1.287
												c0.409,0.677,0.419,1.583-0.068,2.142c-0.549,0.63-1.571,0.687-2.399,0.361c-0.828-0.326-1.506-0.959-2.148-1.586
												c-0.177-0.174-0.358-0.354-0.458-0.578c-0.099-0.224-0.098-0.503,0.068-0.664"/>
										</g>
									</g>
									<g>
										<g>
											<g>
												<path style="fill:#263238;" d="M238.706,157.438c-0.289-0.046-0.483,1.892-2.277,3.104
													c-1.792,1.217-3.836,0.796-3.878,1.065c-0.039,0.119,0.423,0.422,1.292,0.531c0.852,0.113,2.128-0.038,3.226-0.78
													c1.095-0.744,1.641-1.826,1.785-2.615C239.009,157.941,238.84,157.44,238.706,157.438z"/>
											</g>
										</g>
									</g>
								</g>
							</g>
						</g>
					</g>
				</g>
				<g>
					<g>
						<path style="fill:#263238;" d="M229.418,138.678c-0.107,0.273-1.338,0.022-2.837,0.024c-1.499-0.019-2.733,0.218-2.836-0.056
							c-0.113-0.249,1.124-0.985,2.842-0.97C228.305,137.681,229.533,138.43,229.418,138.678z"/>
					</g>
				</g>
				<g>
					<g>
						<path style="fill:#263238;" d="M247.389,139.451c-0.055-0.038-0.061-0.143-0.019-0.306l0.045,0.262
							c-0.486-0.124-1.51-0.588-2.797-0.686c-1.686-0.178-3.029,0.373-3.174,0.115c-0.065-0.116,0.204-0.431,0.787-0.719
							c0.577-0.289,1.481-0.51,2.477-0.418c1.542,0.12,2.656,0.958,2.928,1.4l0.126,0.205l-0.081,0.057
							C247.544,139.457,247.444,139.489,247.389,139.451z"/>
					</g>
				</g>
				<g>
					<g>
						<path style="fill:#EB996E;" d="M247.846,151.083c-0.141,0.017-0.279-0.178-0.31-0.435c-0.03-0.257,0.059-0.478,0.2-0.495
							c0.141-0.017,0.279,0.178,0.31,0.435C248.077,150.845,247.987,151.066,247.846,151.083z"/>
					</g>
				</g>
				<g>
					<g>
						<path style="fill:#EB996E;" d="M243.753,150.906c-0.14-0.009-0.238-0.239-0.133-0.487c0.105-0.248,0.338-0.338,0.442-0.244
							c0.107,0.095,0.098,0.28,0.031,0.444C244.022,150.781,243.896,150.916,243.753,150.906z"/>
					</g>
				</g>
				<g>
					<g>
						<path style="fill:#EB996E;" d="M245.967,152.673c-0.141-0.009-0.247-0.157-0.237-0.332c0.011-0.175,0.134-0.309,0.275-0.3
							c0.141,0.009,0.247,0.157,0.237,0.332C246.232,152.548,246.109,152.682,245.967,152.673z"/>
					</g>
				</g>
				<g>
					<g>
						<path style="fill:#EB996E;" d="M222.606,150.105c-0.141-0.017-0.229-0.239-0.198-0.495c0.031-0.256,0.171-0.45,0.312-0.433
							c0.141,0.017,0.229,0.239,0.198,0.495C222.886,149.929,222.747,150.123,222.606,150.105z"/>
					</g>
				</g>
				<g>
					<g>
						<path style="fill:#EB996E;" d="M226.729,150.188c-0.142-0.008-0.247-0.184-0.236-0.393c0.011-0.209,0.135-0.373,0.277-0.365
							c0.142,0.008,0.247,0.184,0.236,0.393C226.995,150.032,226.871,150.196,226.729,150.188z"/>
					</g>
				</g>
				<g>
					<g>
						<path style="fill:#EB996E;" d="M224.717,151.494c-0.142,0.001-0.258-0.206-0.26-0.461c-0.002-0.256,0.111-0.464,0.253-0.465
							c0.142-0.001,0.258,0.206,0.26,0.462C224.972,151.284,224.859,151.493,224.717,151.494z"/>
					</g>
				</g>
			</g>
			<g>
				<g>
					<path style="fill:#263238;" d="M237.777,115.939c-0.525,6.209-3.147,12.223-7.34,16.833c-4.193,4.61-8.931,8.636-15.063,9.747
						c1.666-5.285,2.023-9.537,3.377-13.944c1.354-4.407,3.238-8.845,6.687-11.904c4.298-3.811,10.834-4.877,16.12-2.631"/>
				</g>
				<g>
					<g>
						<path style="fill:#455A64;" d="M216.685,137.544c-0.006-0.11,1.557,0.161,3.914-0.498c1.164-0.347,2.494-0.957,3.815-1.883
							c1.328-0.912,2.673-2.098,4.01-3.398c2.637-2.652,4.52-5.51,5.852-7.57c0.616-0.99,1.133-1.819,1.541-2.475
							c0.361-0.587,0.57-0.907,0.596-0.893c0.025,0.014-0.135,0.361-0.453,0.974c-0.318,0.612-0.798,1.489-1.43,2.55
							c-1.273,2.108-3.128,5.016-5.808,7.712c-1.357,1.32-2.718,2.505-4.09,3.421c-1.361,0.928-2.747,1.531-3.954,1.849
							c-1.213,0.304-2.231,0.36-2.924,0.328C217.062,137.635,216.683,137.567,216.685,137.544z"/>
					</g>
				</g>
				<g>
					<g>
						<path style="fill:#455A64;" d="M220.663,138.185c0.011,0.01-0.117,0.178-0.368,0.489c-0.25,0.312-0.61,0.779-1.027,1.411
							c-0.826,1.259-1.906,3.214-2.49,5.859c-0.289,1.316-0.473,2.794-0.4,4.377c0.051,1.584,0.385,3.257,0.755,5.015
							c0.365,1.758,0.785,3.623,0.84,5.611c0.064,1.985-0.349,4.067-1.267,5.968c-0.91,1.904-2.245,3.546-3.828,4.756
							c-1.589,1.201-3.323,1.999-4.674,3.144c-1.35,1.116-2.329,2.636-2.295,4.202c0.01,1.56,0.739,2.916,1.383,4.089
							c0.666,1.174,1.328,2.241,1.678,3.284c0.362,1.031,0.507,1.986,0.437,2.759c-0.06,0.776-0.313,1.345-0.536,1.68
							c-0.22,0.341-0.39,0.475-0.39,0.475c-0.02-0.015,0.126-0.173,0.317-0.519c0.195-0.341,0.412-0.898,0.445-1.647
							c0.043-0.747-0.12-1.669-0.494-2.668c-0.362-1.01-1.023-2.038-1.716-3.218c-0.661-1.174-1.442-2.553-1.473-4.236
							c-0.013-0.83,0.217-1.694,0.655-2.457c0.434-0.768,1.042-1.448,1.739-2.043c1.4-1.196,3.142-2.006,4.675-3.176
							c1.526-1.174,2.817-2.765,3.698-4.609c0.889-1.843,1.29-3.85,1.234-5.776c-0.047-1.934-0.452-3.781-0.807-5.542
							c-0.36-1.762-0.686-3.461-0.724-5.082c-0.06-1.618,0.146-3.123,0.459-4.457c0.632-2.682,1.77-4.642,2.645-5.885
							c0.442-0.624,0.826-1.078,1.098-1.374C220.503,138.325,220.652,138.176,220.663,138.185z"/>
					</g>
				</g>
				<g>
					<g>
						<path style="fill:#263238;" d="M205.946,165.643c0.026-0.011,0.097,0.229,0.349,0.614c0.244,0.385,0.709,0.909,1.486,1.306
							c0.767,0.393,1.858,0.645,3.072,0.436c1.216-0.183,2.464-1.026,3.27-2.35c0.798-1.321,1.183-3.072,0.941-4.879
							c-0.241-1.815-1.083-3.639-2.241-5.352c-1.131-1.74-2.692-3.303-3.929-5.261c-0.612-0.976-1.104-2.085-1.309-3.276
							c-0.208-1.188-0.146-2.441,0.193-3.632c0.668-2.406,2.456-4.315,4.508-5.378c1.025-0.564,2.173-0.804,3.234-1.027
							c1.074-0.223,2.117-0.441,3.115-0.725c4.062-1.037,6.97-3.627,9.376-5.617c2.384-2.066,4.055-4.018,5.017-5.49
							c0.966-1.478,1.197-2.449,1.248-2.429c0.014,0.004-0.055,0.238-0.201,0.684c-0.161,0.439-0.45,1.07-0.908,1.833
							c-0.93,1.517-2.584,3.518-4.958,5.627c-1.187,1.053-2.534,2.156-4.066,3.226c-1.521,1.102-3.374,1.969-5.402,2.541
							c-1.012,0.293-2.068,0.519-3.138,0.745c-1.074,0.231-2.145,0.456-3.127,0.999c-1.963,1.024-3.661,2.846-4.293,5.127
							c-0.321,1.129-0.38,2.315-0.185,3.443c0.194,1.132,0.655,2.18,1.247,3.131c1.191,1.902,2.756,3.486,3.9,5.263
							c1.169,1.749,2.029,3.632,2.264,5.523c0.237,1.888-0.181,3.704-1.034,5.081c-0.856,1.378-2.201,2.257-3.485,2.426
							c-1.277,0.196-2.403-0.093-3.188-0.523c-0.794-0.435-1.256-0.999-1.482-1.407
							C205.989,165.893,205.946,165.643,205.946,165.643z"/>
					</g>
				</g>
			</g>
			<g>
				<g>
					<g>
						<path style="fill:#455A64;" d="M282.726,197.786c-0.051-0.037,0.735-0.794,1.589-2.512c0.409-0.863,0.81-1.972,1.038-3.309
							c0.224-1.332,0.282-2.9-0.063-4.569c-0.318-1.67-1.068-3.423-2.323-4.981c-1.25-1.568-2.931-2.932-4.695-4.367
							c-1.759-1.429-3.633-3.022-4.969-5.172c-0.662-1.068-1.187-2.272-1.384-3.577c-0.202-1.305,0.006-2.678,0.513-3.917
							c1.006-2.497,2.767-4.453,3.709-6.705c0.472-1.118,0.682-2.309,0.545-3.454c-0.153-1.145-0.667-2.194-1.314-3.096
							c-1.323-1.819-3.147-3.029-4.849-4.101c-1.709-1.073-3.331-2.094-4.567-3.331c-1.232-1.227-2.131-2.561-2.626-3.859
							c-0.519-1.292-0.582-2.53-0.438-3.489c0.055-0.486,0.202-0.896,0.305-1.255c0.152-0.342,0.258-0.641,0.385-0.862
							c0.119-0.201,0.216-0.365,0.295-0.499c0.068-0.111,0.106-0.165,0.113-0.162c0.006,0.004-0.019,0.066-0.075,0.184
							c-0.069,0.138-0.153,0.307-0.256,0.514c-0.114,0.225-0.205,0.525-0.342,0.865c-0.089,0.356-0.22,0.761-0.261,1.236
							c-0.116,0.938-0.031,2.133,0.494,3.381c0.501,1.252,1.396,2.545,2.615,3.732c1.219,1.194,2.823,2.185,4.544,3.247
							c1.711,1.06,3.592,2.284,4.977,4.168c0.679,0.936,1.23,2.043,1.399,3.271c0.154,1.227-0.073,2.504-0.563,3.668
							c-0.979,2.336-2.739,4.299-3.699,6.701c-0.486,1.191-0.678,2.467-0.49,3.7c0.184,1.232,0.682,2.386,1.32,3.42
							c1.29,2.086,3.112,3.654,4.864,5.09c1.754,1.441,3.452,2.832,4.722,4.449c1.278,1.61,2.037,3.43,2.342,5.142
							c0.335,1.713,0.253,3.314,0.003,4.667c-0.254,1.358-0.685,2.477-1.123,3.341c-0.456,0.856-0.891,1.473-1.215,1.865
							c-0.154,0.175-0.279,0.318-0.381,0.435C282.779,197.745,282.732,197.791,282.726,197.786z"/>
					</g>
				</g>
				<g>
					<g>
						<path style="fill:#263238;" d="M276.104,195.654c-0.681-5.943-1.849-8.395-1.813-14.377
							c0.033-5.479-5.038-12.768-1.906-19.205c-1.004-4.058-2.641-7.987-4.339-11.826c-1.051-2.376-4.864-9.589-5.833-12.005
							c0.633-4.453,3.833-4.12,3.218-8.56c-0.738-5.328-3.249-10.662-7.776-13.567c-2.835-1.82-6.231-2.56-9.583-2.9
							c-2.334-0.236-4.726-0.29-6.992,0.319c-2.266,0.608-4.412,1.949-5.586,3.98l1.172-1.125
							c-1.076,4.957,0.644,10.288,3.932,14.15c3.288,3.863,7.995,6.343,12.915,7.577c-0.059,1.655,0.333,3.315,1.086,4.789
							l-0.123,0.165c0.1,0.048,0.193,0.106,0.289,0.159c0.311,0.556,0.671,1.084,1.086,1.567c0.551,0.643,1.191,1.204,1.89,1.681
							c0.945,2.028,1.038,4.472-0.022,6.454c-1.235,2.309-3.73,3.964-4.233,6.534c-0.565,2.885,1.633,5.652,1.586,8.592
							c-0.026,1.578-0.681,2.996-1.465,4.388c-5.339,6.852-4.397,13.912-1.377,22.057c1.123,3.03,2.852,6.192,1.971,9.301
							c-0.83,2.93-3.777,4.861-4.706,7.761c-1.29,4.028,1.684,8.062,4.461,11.252c5.928-2.661,12.13-4.71,18.477-6.103
							c-0.646-2.661-0.964-5.401-0.945-8.14c0.532,2.88,3.021,5.289,5.917,5.727s5.986-1.127,7.346-3.721
							C279.478,207.754,276.785,201.596,276.104,195.654z"/>
					</g>
					<g>
						<g>
							<path style="fill:#455A64;" d="M267.594,132.135c0.01,0.011-0.091,0.11-0.291,0.29c-0.206,0.172-0.489,0.456-0.905,0.754
								c-0.806,0.63-2.062,1.443-3.743,2.185c-1.676,0.746-3.808,1.365-6.237,1.56c-2.423,0.202-5.145-0.07-7.802-1.01
								c-2.648-0.972-4.911-2.523-6.619-4.253c-1.728-1.721-2.937-3.58-3.753-5.22c-0.818-1.644-1.281-3.062-1.528-4.054
								c-0.139-0.492-0.193-0.888-0.249-1.151c-0.048-0.265-0.067-0.405-0.053-0.408c0.036-0.008,0.169,0.541,0.46,1.514
								c0.294,0.971,0.795,2.358,1.636,3.962c0.838,1.601,2.054,3.409,3.762,5.081c1.689,1.681,3.905,3.183,6.488,4.132
								c2.594,0.917,5.253,1.196,7.63,1.02c2.383-0.171,4.484-0.747,6.15-1.447C265.894,133.686,267.53,132.034,267.594,132.135z"/>
						</g>
					</g>
					<g>
						<g>
							<path style="fill:#455A64;" d="M266.669,125.525c0.007,0.025-0.323,0.143-0.935,0.298c-0.612,0.156-1.514,0.328-2.643,0.428
								c-2.245,0.212-5.459,0.02-8.708-1.235c-3.251-1.253-5.76-3.271-7.281-4.936c-0.768-0.833-1.321-1.566-1.67-2.093
								c-0.35-0.527-0.514-0.835-0.492-0.849c0.066-0.047,0.807,1.143,2.378,2.735c1.554,1.589,4.038,3.522,7.218,4.749
								c3.178,1.227,6.316,1.464,8.535,1.331C265.303,125.83,266.652,125.446,266.669,125.525z"/>
						</g>
					</g>
					<g>
						<g>
							<path style="fill:#455A64;" d="M267.594,128.458c0.094,0.044-0.998,1.67-3.098,2.718c-2.09,1.07-4.047,0.984-4.026,0.882
								c-0.016-0.132,1.845-0.237,3.835-1.259C266.309,129.804,267.498,128.368,267.594,128.458z"/>
						</g>
					</g>
					<g>
						<g>
							<path style="fill:#455A64;" d="M266.122,218.326c-0.021,0.004-0.084-0.323-0.258-0.924c-0.174-0.594-0.546-1.486-1.469-2.24
								c-0.453-0.38-1.032-0.718-1.59-1.207c-0.562-0.484-1.058-1.15-1.405-1.944c-0.165-0.4-0.318-0.82-0.426-1.268
								c-0.128-0.44-0.211-0.917-0.237-1.409c-0.069-0.981,0.172-2.068,0.789-2.986c0.607-0.926,1.534-1.667,2.594-2.204
								c1.037-0.481,1.943-1.33,2.438-2.445c0.237-0.556,0.372-1.17,0.352-1.792c-0.026-0.621-0.202-1.244-0.451-1.852
								c-0.5-1.22-1.29-2.352-2.03-3.568c-1.539-2.421-2.327-5.487-2.123-8.604c0.191-3.11,1.44-6.304,3.642-8.768
								c1.02-1.243,2.007-2.596,1.988-4.15c0.01-1.539-0.78-2.952-1.656-4.176c-0.885-1.235-1.957-2.33-2.773-3.601
								c-0.823-1.24-1.46-2.689-1.349-4.186c0.109-1.508,0.992-2.733,1.82-3.768c0.844-1.05,1.68-2.036,2.136-3.192
								c0.971-2.268,0.885-4.805-0.174-6.616c-0.511-0.916-1.268-1.605-2.025-2.182c-0.762-0.579-1.533-1.063-2.226-1.566
								c-0.689-0.496-1.329-1.011-1.758-1.624c-0.442-0.596-0.737-1.21-0.939-1.781c-0.41-1.145-0.395-2.132-0.229-2.745
								c0.168-0.621,0.409-0.873,0.409-0.873c0.028,0.014-0.19,0.283-0.326,0.893c-0.135,0.603-0.124,1.559,0.3,2.669
								c0.209,0.553,0.509,1.147,0.946,1.716c0.422,0.582,1.039,1.065,1.734,1.552c0.691,0.488,1.469,0.963,2.25,1.544
								c0.776,0.579,1.574,1.286,2.121,2.247c1.13,1.898,1.233,4.538,0.239,6.903c-0.47,1.209-1.342,2.248-2.168,3.286
								c-0.82,1.034-1.632,2.195-1.723,3.566c-0.097,1.366,0.493,2.73,1.298,3.936c0.792,1.23,1.857,2.312,2.771,3.58
								c0.895,1.25,1.745,2.727,1.741,4.422c-0.004,0.834-0.246,1.669-0.653,2.393c-0.399,0.731-0.913,1.382-1.426,2.019
								c-2.168,2.429-3.358,5.495-3.558,8.53c-0.201,3.037,0.55,6.005,2.044,8.376c0.724,1.203,1.524,2.355,2.04,3.628
								c0.254,0.631,0.444,1.301,0.468,1.982c0.019,0.68-0.132,1.346-0.392,1.944c-0.536,1.197-1.529,2.102-2.612,2.595
								c-1.025,0.509-1.913,1.212-2.491,2.078c-0.587,0.859-0.823,1.872-0.769,2.809c0.057,0.937,0.297,1.824,0.611,2.596
								c0.325,0.771,0.787,1.41,1.322,1.887c0.531,0.482,1.104,0.832,1.562,1.232c0.938,0.8,1.296,1.736,1.445,2.342
								c0.089,0.305,0.112,0.547,0.146,0.705C266.119,218.243,266.13,218.325,266.122,218.326z"/>
						</g>
					</g>
					<g>
						<g>
							<path style="fill:#455A64;" d="M267.727,130.569c0.011,0.009-0.072,0.127-0.241,0.345c-0.163,0.224-0.432,0.528-0.795,0.908
								c-0.729,0.751-1.911,1.743-3.593,2.601c-1.679,0.842-3.884,1.519-6.391,1.538c-2.487-0.015-5.257-0.505-7.836-1.83
								c-1.276-0.675-2.433-1.527-3.344-2.55c-0.926-1.011-1.594-2.169-2.113-3.295c-1.03-2.269-1.629-4.415-2.321-6.137
								c-0.672-1.731-1.41-3.045-2.04-3.868c-0.619-0.831-1.064-1.207-1.027-1.244c0.01-0.011,0.121,0.081,0.325,0.267
								c0.213,0.178,0.493,0.473,0.832,0.876c0.68,0.804,1.473,2.123,2.187,3.857c0.733,1.725,1.366,3.867,2.396,6.084
								c0.521,1.105,1.171,2.212,2.066,3.181c0.88,0.981,1.998,1.8,3.234,2.455c2.495,1.284,5.216,1.78,7.639,1.815
								c2.439,0.002,4.599-0.626,6.26-1.417c1.664-0.806,2.855-1.744,3.61-2.451C267.335,130.996,267.692,130.54,267.727,130.569z"
								/>
						</g>
					</g>
				</g>
			</g>
		</g>
	</g>
</g>
<g id="Starts">
	<g>
		<g>
			<g>
				<g>
					<path style="fill:#455A64;" d="M163.156,309.001c0,0.144-3.452,0.26-7.71,0.26c-4.259,0-7.71-0.117-7.71-0.26
						c0-0.144,3.451-0.26,7.71-0.26C159.704,308.741,163.156,308.857,163.156,309.001z"/>
				</g>
			</g>
			<g>
				<g>
					<path style="fill:#455A64;" d="M171.344,284.488c0.144,0,0.26,4.094,0.26,9.143c0,5.051-0.117,9.144-0.26,9.144
						c-0.144,0-0.26-4.093-0.26-9.144C171.084,288.582,171.2,284.488,171.344,284.488z"/>
				</g>
			</g>
		</g>
		<g>
			<g>
				<g>
					<path style="fill:#455A64;" d="M180.064,308.414c0-0.144,3.452-0.26,7.709-0.26c4.259,0,7.71,0.116,7.71,0.26
						c0,0.144-3.451,0.26-7.71,0.26C183.516,308.674,180.064,308.558,180.064,308.414z"/>
				</g>
			</g>
			<g>
				<g>
					<path style="fill:#455A64;" d="M171.876,332.927c-0.144,0-0.26-4.094-0.26-9.143c0-5.051,0.117-9.143,0.26-9.143
						c0.144,0,0.26,4.093,0.26,9.143C172.137,328.833,172.02,332.927,171.876,332.927z"/>
				</g>
			</g>
		</g>
		<g>
			<g>
				<path style="fill:#455A64;" d="M184.338,322.413c-0.117,0.084-1.439-1.566-2.952-3.685c-1.514-2.119-2.646-3.904-2.529-3.988
					c0.117-0.084,1.439,1.566,2.953,3.685C183.323,320.544,184.455,322.329,184.338,322.413z"/>
			</g>
		</g>
		<g>
			<g>
				<path style="fill:#455A64;" d="M183.618,294.614c0.11,0.093-1.076,1.671-2.647,3.523c-1.572,1.853-2.935,3.28-3.045,3.187
					c-0.11-0.093,1.075-1.67,2.648-3.524C182.145,295.948,183.508,294.521,183.618,294.614z"/>
			</g>
		</g>
		<g>
			<g>
				<path style="fill:#455A64;" d="M165.945,301.696c-0.1,0.103-1.395-0.993-2.891-2.448c-1.497-1.456-2.628-2.719-2.528-2.822
					c0.1-0.103,1.395,0.993,2.891,2.449C164.913,300.33,166.045,301.593,165.945,301.696z"/>
			</g>
		</g>
		<g>
			<g>
				<path style="fill:#455A64;" d="M165.251,313.948c0.114,0.088-0.951,1.644-2.378,3.473c-1.427,1.83-2.675,3.242-2.789,3.153
					s0.951-1.643,2.378-3.474C163.889,315.271,165.138,313.859,165.251,313.948z"/>
			</g>
		</g>
	</g>
	<g>
		<g>
			<g>
				<g>
					<path style="fill:#455A64;" d="M438.018,175.613c0,0.144-1.293,0.26-2.888,0.26c-1.596,0-2.889-0.117-2.889-0.26
						c0-0.144,1.293-0.26,2.889-0.26C436.725,175.353,438.018,175.47,438.018,175.613z"/>
				</g>
			</g>
			<g>
				<g>
					<path style="fill:#455A64;" d="M441.085,166.43c0.144,0,0.26,1.534,0.26,3.425c0,1.892-0.117,3.426-0.26,3.426
						s-0.26-1.533-0.26-3.426C440.825,167.964,440.942,166.43,441.085,166.43z"/>
				</g>
			</g>
		</g>
		<g>
			<g>
				<g>
					<path style="fill:#455A64;" d="M444.352,175.394c0-0.144,1.293-0.26,2.888-0.26c1.596,0,2.888,0.117,2.888,0.26
						c0,0.144-1.293,0.26-2.888,0.26C445.645,175.654,444.352,175.537,444.352,175.394z"/>
				</g>
			</g>
			<g>
				<g>
					<path style="fill:#455A64;" d="M441.285,184.577c-0.144,0-0.26-1.534-0.26-3.425c0-1.892,0.117-3.425,0.26-3.425
						c0.144,0,0.26,1.533,0.26,3.425C441.545,183.043,441.429,184.577,441.285,184.577z"/>
				</g>
			</g>
		</g>
		<g>
			<g>
				<path style="fill:#455A64;" d="M445.953,180.638c-0.117,0.084-0.672-0.492-1.239-1.286c-0.567-0.794-0.932-1.505-0.815-1.589
					c0.117-0.084,0.671,0.492,1.239,1.286C445.705,179.843,446.07,180.554,445.953,180.638z"/>
			</g>
		</g>
		<g>
			<g>
				<path style="fill:#455A64;" d="M445.684,170.224c0.11,0.093-0.279,0.731-0.867,1.425c-0.589,0.694-1.155,1.182-1.265,1.089
					c-0.11-0.093,0.279-0.731,0.868-1.426C445.008,170.618,445.574,170.131,445.684,170.224z"/>
			</g>
		</g>
		<g>
			<g>
				<path style="fill:#455A64;" d="M439.063,172.877c-0.1,0.103-0.636-0.255-1.197-0.8c-0.561-0.545-0.934-1.071-0.834-1.174
					c0.1-0.103,0.636,0.255,1.197,0.801C438.79,172.248,439.163,172.774,439.063,172.877z"/>
			</g>
		</g>
		<g>
			<g>
				<path style="fill:#455A64;" d="M438.803,177.467c0.113,0.089-0.228,0.716-0.762,1.401c-0.535,0.686-1.06,1.17-1.173,1.081
					c-0.113-0.088,0.228-0.716,0.763-1.401C438.164,177.862,438.689,177.378,438.803,177.467z"/>
			</g>
		</g>
	</g>
	<g>
		<g>
			<g>
				<g>
					<path style="fill:#455A64;" d="M60.845,354.292c0,0.144-1.293,0.26-2.888,0.26c-1.596,0-2.889-0.117-2.889-0.26
						c0-0.144,1.293-0.26,2.889-0.26C59.551,354.032,60.845,354.149,60.845,354.292z"/>
				</g>
			</g>
			<g>
				<g>
					<path style="fill:#455A64;" d="M63.912,345.109c0.144,0,0.26,1.534,0.26,3.425c0,1.892-0.116,3.426-0.26,3.426
						c-0.144,0-0.26-1.533-0.26-3.426C63.652,346.643,63.768,345.109,63.912,345.109z"/>
				</g>
			</g>
		</g>
		<g>
			<g>
				<g>
					<path style="fill:#455A64;" d="M67.179,354.072c0-0.144,1.293-0.26,2.888-0.26c1.595,0,2.888,0.117,2.888,0.26
						s-1.293,0.26-2.888,0.26C68.472,354.333,67.179,354.216,67.179,354.072z"/>
				</g>
			</g>
			<g>
				<g>
					<path style="fill:#455A64;" d="M64.111,363.255c-0.144,0-0.26-1.534-0.26-3.425c0-1.892,0.117-3.425,0.26-3.425
						s0.26,1.533,0.26,3.425C64.372,361.722,64.255,363.255,64.111,363.255z"/>
				</g>
			</g>
		</g>
		<g>
			<g>
				<path style="fill:#455A64;" d="M68.78,359.317c-0.117,0.084-0.672-0.492-1.239-1.286c-0.567-0.794-0.932-1.505-0.815-1.589
					c0.117-0.084,0.671,0.492,1.239,1.286C68.532,358.522,68.897,359.233,68.78,359.317z"/>
			</g>
		</g>
		<g>
			<g>
				<path style="fill:#455A64;" d="M68.51,348.903c0.11,0.093-0.279,0.731-0.868,1.425c-0.589,0.694-1.155,1.182-1.265,1.089
					c-0.11-0.093,0.279-0.731,0.868-1.425C67.834,349.297,68.4,348.81,68.51,348.903z"/>
			</g>
		</g>
		<g>
			<g>
				<path style="fill:#455A64;" d="M61.889,351.556c-0.1,0.103-0.636-0.255-1.197-0.801c-0.561-0.545-0.934-1.071-0.834-1.174
					c0.1-0.103,0.636,0.255,1.197,0.801C61.616,350.927,61.99,351.453,61.889,351.556z"/>
			</g>
		</g>
		<g>
			<g>
				<path style="fill:#455A64;" d="M61.629,356.146c0.113,0.088-0.228,0.716-0.762,1.401c-0.535,0.686-1.06,1.17-1.173,1.081
					c-0.113-0.088,0.228-0.716,0.762-1.401C60.991,356.541,61.516,356.057,61.629,356.146z"/>
			</g>
		</g>
	</g>
	<g>
		<path style="fill:#455A64;" d="M356.271,118.809l0.304,0.729c0.53,1.274,1.548,2.283,2.827,2.802l0.793,0.322l-0.761,0.309
			c-1.297,0.526-2.326,1.557-2.849,2.855l-0.215,0.532l-0.321-0.668c-0.584-1.215-1.62-2.154-2.886-2.617l-0.691-0.252l0.903-0.437
			c1.136-0.551,2.032-1.498,2.517-2.664L356.271,118.809z"/>
	</g>
	<g>
		<path style="fill:#455A64;" d="M57.897,213.006l0.289,0.695c0.506,1.214,1.476,2.176,2.694,2.67l0.755,0.307l-0.725,0.294
			c-1.236,0.502-2.216,1.484-2.715,2.721l-0.205,0.507l-0.306-0.637c-0.556-1.158-1.543-2.053-2.75-2.494l-0.658-0.24l0.86-0.417
			c1.083-0.525,1.936-1.428,2.399-2.539L57.897,213.006z"/>
	</g>
	<g>
		<path style="fill:#455A64;" d="M416.545,344.362l0.415,0.998c0.726,1.743,2.119,3.123,3.868,3.833l1.084,0.44l-1.041,0.423
			c-1.775,0.72-3.182,2.13-3.898,3.907l-0.294,0.728l-0.439-0.914c-0.799-1.663-2.216-2.947-3.948-3.58l-0.945-0.345l1.235-0.598
			c1.555-0.753,2.78-2.05,3.444-3.645L416.545,344.362z"/>
	</g>
	<g>
		<g>
			<g>
				<g>
					<path style="fill:#455A64;" d="M361.577,52.354c0,0.144-2.569,0.26-5.738,0.26c-3.17,0-5.739-0.117-5.739-0.26
						s2.569-0.26,5.739-0.26C359.008,52.093,361.577,52.21,361.577,52.354z"/>
				</g>
			</g>
			<g>
				<g>
					<path style="fill:#455A64;" d="M367.671,36.743c0.144,0,0.26,2.607,0.26,5.822c0,3.216-0.117,5.823-0.26,5.823
						c-0.144,0-0.26-2.607-0.26-5.823C367.411,39.35,367.528,36.743,367.671,36.743z"/>
				</g>
			</g>
		</g>
		<g>
			<g>
				<g>
					<path style="fill:#455A64;" d="M374.162,51.98c0-0.144,2.569-0.26,5.738-0.26c3.17,0,5.739,0.117,5.739,0.26
						c0,0.144-2.569,0.26-5.739,0.26C376.731,52.24,374.162,52.124,374.162,51.98z"/>
				</g>
			</g>
			<g>
				<g>
					<path style="fill:#455A64;" d="M368.068,67.59c-0.144,0-0.26-2.607-0.26-5.822c0-3.216,0.117-5.823,0.26-5.823
						s0.26,2.606,0.26,5.823C368.328,64.983,368.211,67.59,368.068,67.59z"/>
				</g>
			</g>
		</g>
		<g>
			<g>
				<path style="fill:#455A64;" d="M377.343,60.895c-0.11,0.092-1.113-0.927-2.24-2.276c-1.127-1.35-1.951-2.518-1.84-2.61
					c0.11-0.092,1.113,0.927,2.24,2.276C376.629,59.634,377.453,60.803,377.343,60.895z"/>
			</g>
		</g>
		<g>
			<g>
				<path style="fill:#455A64;" d="M376.807,43.192c0.102,0.101-0.763,1.14-1.933,2.32c-1.17,1.18-2.201,2.055-2.303,1.953
					c-0.102-0.101,0.763-1.14,1.933-2.32C375.673,43.965,376.705,43.09,376.807,43.192z"/>
			</g>
		</g>
		<g>
			<g>
				<path style="fill:#455A64;" d="M363.653,47.702c-0.092,0.111-1.07-0.551-2.183-1.478c-1.114-0.927-1.942-1.768-1.85-1.878
					c0.092-0.111,1.069,0.551,2.183,1.478C362.916,46.75,363.745,47.591,363.653,47.702z"/>
			</g>
		</g>
		<g>
			<g>
				<path style="fill:#455A64;" d="M363.136,55.504c0.106,0.097-0.668,1.12-1.73,2.285c-1.062,1.166-2.009,2.032-2.115,1.935
					c-0.106-0.097,0.668-1.12,1.73-2.285C362.083,56.273,363.03,55.407,363.136,55.504z"/>
			</g>
		</g>
	</g>
	<g>
		<g>
			<g>
				<g>
					<path style="fill:#455A64;" d="M62.509,130.472c0,0.144-2.569,0.26-5.738,0.26c-3.17,0-5.739-0.117-5.739-0.26
						s2.569-0.26,5.739-0.26C59.94,130.211,62.509,130.328,62.509,130.472z"/>
				</g>
			</g>
			<g>
				<g>
					<path style="fill:#455A64;" d="M68.604,114.861c0.144,0,0.26,2.607,0.26,5.822c0,3.216-0.117,5.823-0.26,5.823
						c-0.144,0-0.26-2.607-0.26-5.823C68.343,117.468,68.46,114.861,68.604,114.861z"/>
				</g>
			</g>
		</g>
		<g>
			<g>
				<g>
					<path style="fill:#455A64;" d="M75.094,130.098c0-0.144,2.569-0.26,5.738-0.26c3.17,0,5.739,0.117,5.739,0.26
						c0,0.144-2.569,0.26-5.739,0.26C77.664,130.358,75.094,130.242,75.094,130.098z"/>
				</g>
			</g>
			<g>
				<g>
					<path style="fill:#455A64;" d="M69,145.708c-0.144,0-0.26-2.607-0.26-5.822c0-3.216,0.117-5.823,0.26-5.823
						c0.144,0,0.26,2.607,0.26,5.823C69.26,143.101,69.144,145.708,69,145.708z"/>
				</g>
			</g>
		</g>
		<g>
			<g>
				<path style="fill:#455A64;" d="M78.275,139.013c-0.11,0.092-1.113-0.927-2.24-2.276c-1.127-1.35-1.951-2.518-1.84-2.61
					c0.11-0.092,1.113,0.927,2.24,2.276C77.562,137.752,78.386,138.921,78.275,139.013z"/>
			</g>
		</g>
		<g>
			<g>
				<path style="fill:#455A64;" d="M77.739,121.31c0.102,0.101-0.763,1.14-1.933,2.32c-1.17,1.18-2.201,2.055-2.303,1.953
					c-0.102-0.101,0.763-1.14,1.933-2.32C76.606,122.083,77.637,121.209,77.739,121.31z"/>
			</g>
		</g>
		<g>
			<g>
				<path style="fill:#455A64;" d="M64.585,125.82c-0.092,0.11-1.07-0.551-2.183-1.478c-1.114-0.927-1.942-1.768-1.85-1.878
					c0.092-0.11,1.069,0.551,2.183,1.478C63.849,124.868,64.677,125.709,64.585,125.82z"/>
			</g>
		</g>
		<g>
			<g>
				<path style="fill:#455A64;" d="M64.069,133.622c0.106,0.097-0.668,1.12-1.73,2.285c-1.062,1.166-2.009,2.032-2.115,1.935
					c-0.106-0.097,0.668-1.12,1.73-2.285C63.015,134.391,63.962,133.525,64.069,133.622z"/>
			</g>
		</g>
	</g>
</g>
</svg>
